<mxfile host="Electron" agent="Mozilla/5.0 (Macintosh; Intel Mac OS X 10_15_7) AppleWebKit/537.36 (KHTML, like Gecko) draw.io/26.1.1 Chrome/132.0.6834.210 Electron/34.3.3 Safari/537.36" version="26.1.1">
  <diagram name="Page-1" id="iVtIzEym0j8K0igD0xIm">
    <mxGraphModel dx="3503" dy="1616" grid="1" gridSize="10" guides="1" tooltips="1" connect="1" arrows="1" fold="1" page="1" pageScale="1" pageWidth="850" pageHeight="1100" math="0" shadow="0">
      <root>
        <mxCell id="0" />
        <mxCell id="1" parent="0" />
        <mxCell id="cOvMReYoXUqAnT7zXksZ-333" value="" style="ellipse;whiteSpace=wrap;html=1;aspect=fixed;fillColor=#FFFFFF;strokeColor=#545454;" parent="1" vertex="1">
          <mxGeometry x="965" y="1875" width="50" height="50" as="geometry" />
        </mxCell>
        <mxCell id="cOvMReYoXUqAnT7zXksZ-88" value="" style="ellipse;whiteSpace=wrap;html=1;aspect=fixed;fillColor=#FFFFFF;strokeColor=#545454;" parent="1" vertex="1">
          <mxGeometry x="420" y="1920" width="50" height="50" as="geometry" />
        </mxCell>
        <mxCell id="cOvMReYoXUqAnT7zXksZ-1" value="" style="html=1;whiteSpace=wrap;" parent="1" vertex="1">
          <mxGeometry x="230" y="140" width="450" height="630" as="geometry" />
        </mxCell>
        <mxCell id="cOvMReYoXUqAnT7zXksZ-2" value="Student" style="shape=umlActor;verticalLabelPosition=bottom;verticalAlign=top;html=1;" parent="1" vertex="1">
          <mxGeometry x="150" y="510" width="30" height="60" as="geometry" />
        </mxCell>
        <mxCell id="cOvMReYoXUqAnT7zXksZ-3" value="Department Staff" style="shape=umlActor;verticalLabelPosition=bottom;verticalAlign=top;html=1;" parent="1" vertex="1">
          <mxGeometry x="130" y="200" width="30" height="60" as="geometry" />
        </mxCell>
        <mxCell id="cOvMReYoXUqAnT7zXksZ-8" value="Online University Registration System" style="text;align=center;fontStyle=1;verticalAlign=middle;spacingLeft=3;spacingRight=3;strokeColor=none;rotatable=0;points=[[0,0.5],[1,0.5]];portConstraint=eastwest;html=1;" parent="1" vertex="1">
          <mxGeometry x="425" y="160" width="80" height="26" as="geometry" />
        </mxCell>
        <mxCell id="cOvMReYoXUqAnT7zXksZ-9" value="View Course" style="ellipse;whiteSpace=wrap;html=1;" parent="1" vertex="1">
          <mxGeometry x="280" y="200" width="100" height="50" as="geometry" />
        </mxCell>
        <mxCell id="cOvMReYoXUqAnT7zXksZ-11" value="" style="endArrow=none;html=1;rounded=0;entryX=0;entryY=0.5;entryDx=0;entryDy=0;" parent="1" target="cOvMReYoXUqAnT7zXksZ-9" edge="1">
          <mxGeometry width="50" height="50" relative="1" as="geometry">
            <mxPoint x="190" y="230" as="sourcePoint" />
            <mxPoint x="240" y="180" as="targetPoint" />
          </mxGeometry>
        </mxCell>
        <mxCell id="cOvMReYoXUqAnT7zXksZ-12" value="&lt;font style=&quot;font-size: 14px;&quot;&gt;&lt;b&gt;*&lt;/b&gt;&lt;/font&gt;" style="edgeLabel;html=1;align=center;verticalAlign=middle;resizable=0;points=[];" parent="cOvMReYoXUqAnT7zXksZ-11" vertex="1" connectable="0">
          <mxGeometry x="-0.5286" y="-1" relative="1" as="geometry">
            <mxPoint as="offset" />
          </mxGeometry>
        </mxCell>
        <mxCell id="cOvMReYoXUqAnT7zXksZ-13" value="&lt;font style=&quot;font-size: 14px;&quot;&gt;&lt;b&gt;*&lt;/b&gt;&lt;/font&gt;" style="edgeLabel;html=1;align=center;verticalAlign=middle;resizable=0;points=[];" parent="cOvMReYoXUqAnT7zXksZ-11" vertex="1" connectable="0">
          <mxGeometry x="0.5571" relative="1" as="geometry">
            <mxPoint as="offset" />
          </mxGeometry>
        </mxCell>
        <mxCell id="cOvMReYoXUqAnT7zXksZ-14" value="" style="endArrow=none;html=1;rounded=0;entryX=0;entryY=0.5;entryDx=0;entryDy=0;" parent="1" target="cOvMReYoXUqAnT7zXksZ-17" edge="1">
          <mxGeometry width="50" height="50" relative="1" as="geometry">
            <mxPoint x="190" y="228" as="sourcePoint" />
            <mxPoint x="280" y="222.5" as="targetPoint" />
          </mxGeometry>
        </mxCell>
        <mxCell id="cOvMReYoXUqAnT7zXksZ-15" value="&lt;font style=&quot;font-size: 14px;&quot;&gt;&lt;b&gt;*&lt;/b&gt;&lt;/font&gt;" style="edgeLabel;html=1;align=center;verticalAlign=middle;resizable=0;points=[];" parent="cOvMReYoXUqAnT7zXksZ-14" vertex="1" connectable="0">
          <mxGeometry x="-0.5286" y="-1" relative="1" as="geometry">
            <mxPoint as="offset" />
          </mxGeometry>
        </mxCell>
        <mxCell id="cOvMReYoXUqAnT7zXksZ-16" value="&lt;font style=&quot;font-size: 14px;&quot;&gt;&lt;b&gt;*&lt;/b&gt;&lt;/font&gt;" style="edgeLabel;html=1;align=center;verticalAlign=middle;resizable=0;points=[];" parent="cOvMReYoXUqAnT7zXksZ-14" vertex="1" connectable="0">
          <mxGeometry x="0.5571" relative="1" as="geometry">
            <mxPoint as="offset" />
          </mxGeometry>
        </mxCell>
        <mxCell id="cOvMReYoXUqAnT7zXksZ-17" value="Add Course" style="ellipse;whiteSpace=wrap;html=1;" parent="1" vertex="1">
          <mxGeometry x="280" y="255" width="100" height="50" as="geometry" />
        </mxCell>
        <mxCell id="cOvMReYoXUqAnT7zXksZ-18" value="" style="endArrow=none;html=1;rounded=0;entryX=0;entryY=0.5;entryDx=0;entryDy=0;" parent="1" target="cOvMReYoXUqAnT7zXksZ-21" edge="1">
          <mxGeometry width="50" height="50" relative="1" as="geometry">
            <mxPoint x="190" y="230" as="sourcePoint" />
            <mxPoint x="290" y="305" as="targetPoint" />
          </mxGeometry>
        </mxCell>
        <mxCell id="cOvMReYoXUqAnT7zXksZ-19" value="&lt;font style=&quot;font-size: 14px;&quot;&gt;&lt;b&gt;*&lt;/b&gt;&lt;/font&gt;" style="edgeLabel;html=1;align=center;verticalAlign=middle;resizable=0;points=[];" parent="cOvMReYoXUqAnT7zXksZ-18" vertex="1" connectable="0">
          <mxGeometry x="-0.5286" y="-1" relative="1" as="geometry">
            <mxPoint as="offset" />
          </mxGeometry>
        </mxCell>
        <mxCell id="cOvMReYoXUqAnT7zXksZ-20" value="&lt;font style=&quot;font-size: 14px;&quot;&gt;&lt;b&gt;*&lt;/b&gt;&lt;/font&gt;" style="edgeLabel;html=1;align=center;verticalAlign=middle;resizable=0;points=[];" parent="cOvMReYoXUqAnT7zXksZ-18" vertex="1" connectable="0">
          <mxGeometry x="0.5571" relative="1" as="geometry">
            <mxPoint as="offset" />
          </mxGeometry>
        </mxCell>
        <mxCell id="cOvMReYoXUqAnT7zXksZ-21" value="Remove Course" style="ellipse;whiteSpace=wrap;html=1;" parent="1" vertex="1">
          <mxGeometry x="275" y="310" width="110" height="50" as="geometry" />
        </mxCell>
        <mxCell id="cOvMReYoXUqAnT7zXksZ-22" value="Edit Course" style="ellipse;whiteSpace=wrap;html=1;" parent="1" vertex="1">
          <mxGeometry x="275" y="370" width="110" height="50" as="geometry" />
        </mxCell>
        <mxCell id="cOvMReYoXUqAnT7zXksZ-23" value="" style="endArrow=none;html=1;rounded=0;entryX=0.012;entryY=0.58;entryDx=0;entryDy=0;entryPerimeter=0;" parent="1" target="cOvMReYoXUqAnT7zXksZ-22" edge="1">
          <mxGeometry width="50" height="50" relative="1" as="geometry">
            <mxPoint x="190" y="230" as="sourcePoint" />
            <mxPoint x="285" y="345" as="targetPoint" />
          </mxGeometry>
        </mxCell>
        <mxCell id="cOvMReYoXUqAnT7zXksZ-24" value="&lt;font style=&quot;font-size: 14px;&quot;&gt;&lt;b&gt;*&lt;/b&gt;&lt;/font&gt;" style="edgeLabel;html=1;align=center;verticalAlign=middle;resizable=0;points=[];" parent="cOvMReYoXUqAnT7zXksZ-23" vertex="1" connectable="0">
          <mxGeometry x="-0.5286" y="-1" relative="1" as="geometry">
            <mxPoint as="offset" />
          </mxGeometry>
        </mxCell>
        <mxCell id="cOvMReYoXUqAnT7zXksZ-25" value="&lt;font style=&quot;font-size: 14px;&quot;&gt;&lt;b&gt;*&lt;/b&gt;&lt;/font&gt;" style="edgeLabel;html=1;align=center;verticalAlign=middle;resizable=0;points=[];" parent="cOvMReYoXUqAnT7zXksZ-23" vertex="1" connectable="0">
          <mxGeometry x="0.5571" relative="1" as="geometry">
            <mxPoint as="offset" />
          </mxGeometry>
        </mxCell>
        <mxCell id="cOvMReYoXUqAnT7zXksZ-26" value="View Available Courses" style="ellipse;whiteSpace=wrap;html=1;" parent="1" vertex="1">
          <mxGeometry x="280" y="490" width="105" height="50" as="geometry" />
        </mxCell>
        <mxCell id="cOvMReYoXUqAnT7zXksZ-27" value="" style="endArrow=none;html=1;rounded=0;entryX=0;entryY=0.5;entryDx=0;entryDy=0;" parent="1" target="cOvMReYoXUqAnT7zXksZ-26" edge="1">
          <mxGeometry width="50" height="50" relative="1" as="geometry">
            <mxPoint x="190" y="550" as="sourcePoint" />
            <mxPoint x="230" y="430" as="targetPoint" />
          </mxGeometry>
        </mxCell>
        <mxCell id="cOvMReYoXUqAnT7zXksZ-28" value="&lt;font style=&quot;font-size: 14px;&quot;&gt;&lt;b&gt;*&lt;/b&gt;&lt;/font&gt;" style="edgeLabel;html=1;align=center;verticalAlign=middle;resizable=0;points=[];" parent="cOvMReYoXUqAnT7zXksZ-27" vertex="1" connectable="0">
          <mxGeometry x="-0.5393" y="-1" relative="1" as="geometry">
            <mxPoint as="offset" />
          </mxGeometry>
        </mxCell>
        <mxCell id="cOvMReYoXUqAnT7zXksZ-29" value="&lt;b&gt;&lt;font style=&quot;font-size: 14px;&quot;&gt;*&lt;/font&gt;&lt;/b&gt;" style="edgeLabel;html=1;align=center;verticalAlign=middle;resizable=0;points=[];" parent="cOvMReYoXUqAnT7zXksZ-27" vertex="1" connectable="0">
          <mxGeometry x="0.4707" y="-1" relative="1" as="geometry">
            <mxPoint as="offset" />
          </mxGeometry>
        </mxCell>
        <mxCell id="cOvMReYoXUqAnT7zXksZ-30" value="Print Course Report" style="ellipse;whiteSpace=wrap;html=1;" parent="1" vertex="1">
          <mxGeometry x="262.5" y="430" width="122.5" height="50" as="geometry" />
        </mxCell>
        <mxCell id="cOvMReYoXUqAnT7zXksZ-31" value="" style="endArrow=none;html=1;rounded=0;entryX=0;entryY=0.5;entryDx=0;entryDy=0;" parent="1" target="cOvMReYoXUqAnT7zXksZ-30" edge="1">
          <mxGeometry width="50" height="50" relative="1" as="geometry">
            <mxPoint x="190" y="230" as="sourcePoint" />
            <mxPoint x="286" y="409" as="targetPoint" />
          </mxGeometry>
        </mxCell>
        <mxCell id="cOvMReYoXUqAnT7zXksZ-32" value="&lt;font style=&quot;font-size: 14px;&quot;&gt;&lt;b&gt;*&lt;/b&gt;&lt;/font&gt;" style="edgeLabel;html=1;align=center;verticalAlign=middle;resizable=0;points=[];" parent="cOvMReYoXUqAnT7zXksZ-31" vertex="1" connectable="0">
          <mxGeometry x="-0.5286" y="-1" relative="1" as="geometry">
            <mxPoint as="offset" />
          </mxGeometry>
        </mxCell>
        <mxCell id="cOvMReYoXUqAnT7zXksZ-33" value="&lt;font style=&quot;font-size: 14px;&quot;&gt;&lt;b&gt;*&lt;/b&gt;&lt;/font&gt;" style="edgeLabel;html=1;align=center;verticalAlign=middle;resizable=0;points=[];" parent="cOvMReYoXUqAnT7zXksZ-31" vertex="1" connectable="0">
          <mxGeometry x="0.5571" relative="1" as="geometry">
            <mxPoint as="offset" />
          </mxGeometry>
        </mxCell>
        <mxCell id="cOvMReYoXUqAnT7zXksZ-34" value="Register Course" style="ellipse;whiteSpace=wrap;html=1;" parent="1" vertex="1">
          <mxGeometry x="282.5" y="550" width="100" height="50" as="geometry" />
        </mxCell>
        <mxCell id="cOvMReYoXUqAnT7zXksZ-35" value="" style="endArrow=none;html=1;rounded=0;entryX=0;entryY=0.5;entryDx=0;entryDy=0;" parent="1" target="cOvMReYoXUqAnT7zXksZ-34" edge="1">
          <mxGeometry width="50" height="50" relative="1" as="geometry">
            <mxPoint x="190" y="550" as="sourcePoint" />
            <mxPoint x="290" y="525" as="targetPoint" />
          </mxGeometry>
        </mxCell>
        <mxCell id="cOvMReYoXUqAnT7zXksZ-36" value="&lt;font style=&quot;font-size: 14px;&quot;&gt;&lt;b&gt;*&lt;/b&gt;&lt;/font&gt;" style="edgeLabel;html=1;align=center;verticalAlign=middle;resizable=0;points=[];" parent="cOvMReYoXUqAnT7zXksZ-35" vertex="1" connectable="0">
          <mxGeometry x="-0.5393" y="-1" relative="1" as="geometry">
            <mxPoint as="offset" />
          </mxGeometry>
        </mxCell>
        <mxCell id="cOvMReYoXUqAnT7zXksZ-37" value="&lt;b&gt;&lt;font style=&quot;font-size: 14px;&quot;&gt;*&lt;/font&gt;&lt;/b&gt;" style="edgeLabel;html=1;align=center;verticalAlign=middle;resizable=0;points=[];" parent="cOvMReYoXUqAnT7zXksZ-35" vertex="1" connectable="0">
          <mxGeometry x="0.4707" y="-1" relative="1" as="geometry">
            <mxPoint as="offset" />
          </mxGeometry>
        </mxCell>
        <mxCell id="cOvMReYoXUqAnT7zXksZ-38" value="Drop Course" style="ellipse;whiteSpace=wrap;html=1;" parent="1" vertex="1">
          <mxGeometry x="285" y="610" width="100" height="50" as="geometry" />
        </mxCell>
        <mxCell id="cOvMReYoXUqAnT7zXksZ-39" value="" style="endArrow=none;html=1;rounded=0;entryX=0.01;entryY=0.5;entryDx=0;entryDy=0;entryPerimeter=0;" parent="1" target="cOvMReYoXUqAnT7zXksZ-38" edge="1">
          <mxGeometry width="50" height="50" relative="1" as="geometry">
            <mxPoint x="190" y="550" as="sourcePoint" />
            <mxPoint x="292" y="585" as="targetPoint" />
          </mxGeometry>
        </mxCell>
        <mxCell id="cOvMReYoXUqAnT7zXksZ-40" value="&lt;font style=&quot;font-size: 14px;&quot;&gt;&lt;b&gt;*&lt;/b&gt;&lt;/font&gt;" style="edgeLabel;html=1;align=center;verticalAlign=middle;resizable=0;points=[];" parent="cOvMReYoXUqAnT7zXksZ-39" vertex="1" connectable="0">
          <mxGeometry x="-0.5393" y="-1" relative="1" as="geometry">
            <mxPoint as="offset" />
          </mxGeometry>
        </mxCell>
        <mxCell id="cOvMReYoXUqAnT7zXksZ-41" value="&lt;b&gt;&lt;font style=&quot;font-size: 14px;&quot;&gt;*&lt;/font&gt;&lt;/b&gt;" style="edgeLabel;html=1;align=center;verticalAlign=middle;resizable=0;points=[];" parent="cOvMReYoXUqAnT7zXksZ-39" vertex="1" connectable="0">
          <mxGeometry x="0.4707" y="-1" relative="1" as="geometry">
            <mxPoint as="offset" />
          </mxGeometry>
        </mxCell>
        <mxCell id="cOvMReYoXUqAnT7zXksZ-42" value="&amp;lt;&amp;lt;actor&amp;gt;&amp;gt;&lt;div&gt;Financial Office&amp;nbsp;&lt;/div&gt;" style="rounded=0;whiteSpace=wrap;html=1;" parent="1" vertex="1">
          <mxGeometry x="720" y="540" width="120" height="60" as="geometry" />
        </mxCell>
        <mxCell id="cOvMReYoXUqAnT7zXksZ-43" value="Check Fees" style="ellipse;whiteSpace=wrap;html=1;" parent="1" vertex="1">
          <mxGeometry x="535" y="560" width="105" height="50" as="geometry" />
        </mxCell>
        <mxCell id="cOvMReYoXUqAnT7zXksZ-45" value="" style="endArrow=block;endFill=0;endSize=12;html=1;rounded=0;" parent="1" target="cOvMReYoXUqAnT7zXksZ-43" edge="1">
          <mxGeometry width="160" relative="1" as="geometry">
            <mxPoint x="382.5" y="574.71" as="sourcePoint" />
            <mxPoint x="542.5" y="574.71" as="targetPoint" />
          </mxGeometry>
        </mxCell>
        <mxCell id="cOvMReYoXUqAnT7zXksZ-48" value="&amp;lt;&amp;lt;includes&amp;gt;&amp;gt;" style="edgeLabel;html=1;align=center;verticalAlign=middle;resizable=0;points=[];" parent="cOvMReYoXUqAnT7zXksZ-45" vertex="1" connectable="0">
          <mxGeometry x="-0.236" relative="1" as="geometry">
            <mxPoint as="offset" />
          </mxGeometry>
        </mxCell>
        <mxCell id="cOvMReYoXUqAnT7zXksZ-49" value="" style="endArrow=none;html=1;rounded=0;entryX=0;entryY=0.5;entryDx=0;entryDy=0;exitX=1;exitY=0.5;exitDx=0;exitDy=0;" parent="1" source="cOvMReYoXUqAnT7zXksZ-43" target="cOvMReYoXUqAnT7zXksZ-42" edge="1">
          <mxGeometry width="50" height="50" relative="1" as="geometry">
            <mxPoint x="625" y="532.5" as="sourcePoint" />
            <mxPoint x="715" y="497.5" as="targetPoint" />
          </mxGeometry>
        </mxCell>
        <mxCell id="cOvMReYoXUqAnT7zXksZ-50" value="&lt;font style=&quot;font-size: 14px;&quot;&gt;&lt;b&gt;*&lt;/b&gt;&lt;/font&gt;" style="edgeLabel;html=1;align=center;verticalAlign=middle;resizable=0;points=[];" parent="cOvMReYoXUqAnT7zXksZ-49" vertex="1" connectable="0">
          <mxGeometry x="-0.5393" y="-1" relative="1" as="geometry">
            <mxPoint as="offset" />
          </mxGeometry>
        </mxCell>
        <mxCell id="cOvMReYoXUqAnT7zXksZ-51" value="&lt;b&gt;&lt;font style=&quot;font-size: 14px;&quot;&gt;*&lt;/font&gt;&lt;/b&gt;" style="edgeLabel;html=1;align=center;verticalAlign=middle;resizable=0;points=[];" parent="cOvMReYoXUqAnT7zXksZ-49" vertex="1" connectable="0">
          <mxGeometry x="0.4707" y="-1" relative="1" as="geometry">
            <mxPoint as="offset" />
          </mxGeometry>
        </mxCell>
        <mxCell id="cOvMReYoXUqAnT7zXksZ-52" value="View Registered Courses" style="ellipse;whiteSpace=wrap;html=1;" parent="1" vertex="1">
          <mxGeometry x="280" y="670" width="105" height="60" as="geometry" />
        </mxCell>
        <mxCell id="cOvMReYoXUqAnT7zXksZ-53" value="" style="endArrow=none;html=1;rounded=0;entryX=0;entryY=0.5;entryDx=0;entryDy=0;" parent="1" target="cOvMReYoXUqAnT7zXksZ-52" edge="1">
          <mxGeometry width="50" height="50" relative="1" as="geometry">
            <mxPoint x="190" y="550" as="sourcePoint" />
            <mxPoint x="296" y="645" as="targetPoint" />
          </mxGeometry>
        </mxCell>
        <mxCell id="cOvMReYoXUqAnT7zXksZ-54" value="&lt;font style=&quot;font-size: 14px;&quot;&gt;&lt;b&gt;*&lt;/b&gt;&lt;/font&gt;" style="edgeLabel;html=1;align=center;verticalAlign=middle;resizable=0;points=[];" parent="cOvMReYoXUqAnT7zXksZ-53" vertex="1" connectable="0">
          <mxGeometry x="-0.5393" y="-1" relative="1" as="geometry">
            <mxPoint as="offset" />
          </mxGeometry>
        </mxCell>
        <mxCell id="cOvMReYoXUqAnT7zXksZ-55" value="&lt;b&gt;&lt;font style=&quot;font-size: 14px;&quot;&gt;*&lt;/font&gt;&lt;/b&gt;" style="edgeLabel;html=1;align=center;verticalAlign=middle;resizable=0;points=[];" parent="cOvMReYoXUqAnT7zXksZ-53" vertex="1" connectable="0">
          <mxGeometry x="0.4707" y="-1" relative="1" as="geometry">
            <mxPoint as="offset" />
          </mxGeometry>
        </mxCell>
        <mxCell id="cOvMReYoXUqAnT7zXksZ-56" value="Check Maximum Courses" style="ellipse;whiteSpace=wrap;html=1;" parent="1" vertex="1">
          <mxGeometry x="535" y="470" width="105" height="50" as="geometry" />
        </mxCell>
        <mxCell id="cOvMReYoXUqAnT7zXksZ-57" value="" style="endArrow=block;endFill=0;endSize=12;html=1;rounded=0;entryX=0;entryY=0.5;entryDx=0;entryDy=0;exitX=1;exitY=0.5;exitDx=0;exitDy=0;" parent="1" source="cOvMReYoXUqAnT7zXksZ-34" target="cOvMReYoXUqAnT7zXksZ-56" edge="1">
          <mxGeometry width="160" relative="1" as="geometry">
            <mxPoint x="392.5" y="584.71" as="sourcePoint" />
            <mxPoint x="534" y="555" as="targetPoint" />
          </mxGeometry>
        </mxCell>
        <mxCell id="cOvMReYoXUqAnT7zXksZ-58" value="&amp;lt;&amp;lt;includes&amp;gt;&amp;gt;" style="edgeLabel;html=1;align=center;verticalAlign=middle;resizable=0;points=[];" parent="cOvMReYoXUqAnT7zXksZ-57" vertex="1" connectable="0">
          <mxGeometry x="-0.236" relative="1" as="geometry">
            <mxPoint as="offset" />
          </mxGeometry>
        </mxCell>
        <mxCell id="cOvMReYoXUqAnT7zXksZ-60" value="" style="ellipse;whiteSpace=wrap;html=1;aspect=fixed;fillColor=#545454;" parent="1" vertex="1">
          <mxGeometry x="422.5" y="800" width="40" height="40" as="geometry" />
        </mxCell>
        <mxCell id="cOvMReYoXUqAnT7zXksZ-61" value="" style="endArrow=classic;html=1;rounded=0;" parent="1" edge="1">
          <mxGeometry width="50" height="50" relative="1" as="geometry">
            <mxPoint x="442.13" y="840" as="sourcePoint" />
            <mxPoint x="442.13" y="880" as="targetPoint" />
          </mxGeometry>
        </mxCell>
        <mxCell id="cOvMReYoXUqAnT7zXksZ-64" value="" style="endArrow=classic;html=1;rounded=0;exitX=0.5;exitY=1;exitDx=0;exitDy=0;entryX=0.464;entryY=-0.003;entryDx=0;entryDy=0;entryPerimeter=0;" parent="1" source="cOvMReYoXUqAnT7zXksZ-265" target="cOvMReYoXUqAnT7zXksZ-160" edge="1">
          <mxGeometry width="50" height="50" relative="1" as="geometry">
            <mxPoint x="443" y="1090" as="sourcePoint" />
            <mxPoint x="440" y="1120" as="targetPoint" />
          </mxGeometry>
        </mxCell>
        <mxCell id="cOvMReYoXUqAnT7zXksZ-74" value="" style="endArrow=classic;html=1;rounded=0;" parent="1" edge="1">
          <mxGeometry width="50" height="50" relative="1" as="geometry">
            <mxPoint x="444.81" y="1180" as="sourcePoint" />
            <mxPoint x="444.81" y="1230" as="targetPoint" />
          </mxGeometry>
        </mxCell>
        <mxCell id="cOvMReYoXUqAnT7zXksZ-75" value="" style="rhombus;whiteSpace=wrap;html=1;" parent="1" vertex="1">
          <mxGeometry x="425" y="1230" width="40" height="40" as="geometry" />
        </mxCell>
        <mxCell id="cOvMReYoXUqAnT7zXksZ-76" value="" style="endArrow=none;html=1;rounded=0;" parent="1" edge="1">
          <mxGeometry width="50" height="50" relative="1" as="geometry">
            <mxPoint x="360" y="1250" as="sourcePoint" />
            <mxPoint x="425" y="1249.77" as="targetPoint" />
          </mxGeometry>
        </mxCell>
        <mxCell id="cOvMReYoXUqAnT7zXksZ-77" value="" style="endArrow=none;html=1;rounded=0;" parent="1" edge="1">
          <mxGeometry width="50" height="50" relative="1" as="geometry">
            <mxPoint x="465" y="1249.77" as="sourcePoint" />
            <mxPoint x="600" y="1250" as="targetPoint" />
          </mxGeometry>
        </mxCell>
        <mxCell id="cOvMReYoXUqAnT7zXksZ-78" value="[No Course Exists]" style="text;html=1;align=center;verticalAlign=middle;whiteSpace=wrap;rounded=0;" parent="1" vertex="1">
          <mxGeometry x="480" y="1210" width="120" height="30" as="geometry" />
        </mxCell>
        <mxCell id="cOvMReYoXUqAnT7zXksZ-81" value="[Course Exists]" style="text;html=1;align=center;verticalAlign=middle;whiteSpace=wrap;rounded=0;" parent="1" vertex="1">
          <mxGeometry x="312.5" y="1210" width="120" height="30" as="geometry" />
        </mxCell>
        <mxCell id="cOvMReYoXUqAnT7zXksZ-83" value="Select Course to Drop" style="rounded=1;whiteSpace=wrap;html=1;" parent="1" vertex="1">
          <mxGeometry x="305" y="1300" width="120" height="60" as="geometry" />
        </mxCell>
        <mxCell id="cOvMReYoXUqAnT7zXksZ-84" value="" style="endArrow=classic;html=1;rounded=0;" parent="1" edge="1">
          <mxGeometry width="50" height="50" relative="1" as="geometry">
            <mxPoint x="360" y="1250" as="sourcePoint" />
            <mxPoint x="360" y="1300" as="targetPoint" />
          </mxGeometry>
        </mxCell>
        <mxCell id="cOvMReYoXUqAnT7zXksZ-85" value="" style="endArrow=classic;html=1;rounded=0;" parent="1" edge="1">
          <mxGeometry width="50" height="50" relative="1" as="geometry">
            <mxPoint x="600" y="1250" as="sourcePoint" />
            <mxPoint x="600" y="1300" as="targetPoint" />
          </mxGeometry>
        </mxCell>
        <mxCell id="cOvMReYoXUqAnT7zXksZ-86" value="Show Error: &quot;No Course Exists&quot;" style="rounded=1;whiteSpace=wrap;html=1;" parent="1" vertex="1">
          <mxGeometry x="540" y="1300" width="120" height="60" as="geometry" />
        </mxCell>
        <mxCell id="cOvMReYoXUqAnT7zXksZ-87" value="" style="ellipse;whiteSpace=wrap;html=1;aspect=fixed;fillColor=#545454;" parent="1" vertex="1">
          <mxGeometry x="425" y="1925" width="40" height="40" as="geometry" />
        </mxCell>
        <mxCell id="cOvMReYoXUqAnT7zXksZ-90" value="Confirm Action" style="rounded=1;whiteSpace=wrap;html=1;" parent="1" vertex="1">
          <mxGeometry x="305" y="1390" width="120" height="60" as="geometry" />
        </mxCell>
        <mxCell id="cOvMReYoXUqAnT7zXksZ-92" value="" style="endArrow=classic;html=1;rounded=0;entryX=1;entryY=0.5;entryDx=0;entryDy=0;" parent="1" target="cOvMReYoXUqAnT7zXksZ-100" edge="1">
          <mxGeometry width="50" height="50" relative="1" as="geometry">
            <mxPoint x="600" y="1780" as="sourcePoint" />
            <mxPoint x="470" y="1700" as="targetPoint" />
          </mxGeometry>
        </mxCell>
        <mxCell id="cOvMReYoXUqAnT7zXksZ-93" value="System Update Course Enrollment" style="rounded=1;whiteSpace=wrap;html=1;" parent="1" vertex="1">
          <mxGeometry x="380" y="1540" width="130" height="60" as="geometry" />
        </mxCell>
        <mxCell id="cOvMReYoXUqAnT7zXksZ-94" value="" style="endArrow=classic;html=1;rounded=0;" parent="1" edge="1">
          <mxGeometry width="50" height="50" relative="1" as="geometry">
            <mxPoint x="360" y="1360" as="sourcePoint" />
            <mxPoint x="360" y="1390" as="targetPoint" />
          </mxGeometry>
        </mxCell>
        <mxCell id="cOvMReYoXUqAnT7zXksZ-95" value="" style="endArrow=classic;html=1;rounded=0;" parent="1" edge="1">
          <mxGeometry width="50" height="50" relative="1" as="geometry">
            <mxPoint x="359.31" y="1450" as="sourcePoint" />
            <mxPoint x="359" y="1500" as="targetPoint" />
          </mxGeometry>
        </mxCell>
        <mxCell id="cOvMReYoXUqAnT7zXksZ-96" value="System Confirmation" style="rounded=1;whiteSpace=wrap;html=1;" parent="1" vertex="1">
          <mxGeometry x="500" y="1630" width="135" height="60" as="geometry" />
        </mxCell>
        <mxCell id="cOvMReYoXUqAnT7zXksZ-100" value="" style="rhombus;whiteSpace=wrap;html=1;" parent="1" vertex="1">
          <mxGeometry x="425" y="1760" width="40" height="40" as="geometry" />
        </mxCell>
        <mxCell id="cOvMReYoXUqAnT7zXksZ-103" value="" style="endArrow=classic;html=1;rounded=0;exitX=0.5;exitY=1;exitDx=0;exitDy=0;" parent="1" source="cOvMReYoXUqAnT7zXksZ-100" edge="1">
          <mxGeometry width="50" height="50" relative="1" as="geometry">
            <mxPoint x="440" y="1760" as="sourcePoint" />
            <mxPoint x="445" y="1830" as="targetPoint" />
          </mxGeometry>
        </mxCell>
        <mxCell id="cOvMReYoXUqAnT7zXksZ-104" value="" style="ellipse;whiteSpace=wrap;html=1;aspect=fixed;fillColor=#545454;" parent="1" vertex="1">
          <mxGeometry x="-160" y="800" width="40" height="40" as="geometry" />
        </mxCell>
        <mxCell id="cOvMReYoXUqAnT7zXksZ-105" value="" style="rhombus;whiteSpace=wrap;html=1;" parent="1" vertex="1">
          <mxGeometry x="340" y="1500" width="40" height="40" as="geometry" />
        </mxCell>
        <mxCell id="cOvMReYoXUqAnT7zXksZ-106" value="[No]" style="text;html=1;align=center;verticalAlign=middle;whiteSpace=wrap;rounded=0;" parent="1" vertex="1">
          <mxGeometry x="360" y="1490" width="120" height="30" as="geometry" />
        </mxCell>
        <mxCell id="cOvMReYoXUqAnT7zXksZ-107" value="[Yes]" style="text;html=1;align=center;verticalAlign=middle;whiteSpace=wrap;rounded=0;" parent="1" vertex="1">
          <mxGeometry x="250" y="1490" width="120" height="30" as="geometry" />
        </mxCell>
        <mxCell id="cOvMReYoXUqAnT7zXksZ-108" value="" style="endArrow=none;html=1;rounded=0;exitX=0;exitY=1;exitDx=0;exitDy=0;" parent="1" source="cOvMReYoXUqAnT7zXksZ-107" edge="1">
          <mxGeometry width="50" height="50" relative="1" as="geometry">
            <mxPoint x="275" y="1520.23" as="sourcePoint" />
            <mxPoint x="340" y="1520" as="targetPoint" />
          </mxGeometry>
        </mxCell>
        <mxCell id="cOvMReYoXUqAnT7zXksZ-109" value="" style="endArrow=none;html=1;rounded=0;entryX=0.687;entryY=1;entryDx=0;entryDy=0;entryPerimeter=0;" parent="1" target="cOvMReYoXUqAnT7zXksZ-106" edge="1">
          <mxGeometry width="50" height="50" relative="1" as="geometry">
            <mxPoint x="380" y="1520" as="sourcePoint" />
            <mxPoint x="440" y="1520" as="targetPoint" />
          </mxGeometry>
        </mxCell>
        <mxCell id="cOvMReYoXUqAnT7zXksZ-110" value="" style="endArrow=classic;html=1;rounded=0;exitX=0;exitY=1;exitDx=0;exitDy=0;" parent="1" source="cOvMReYoXUqAnT7zXksZ-107" edge="1">
          <mxGeometry width="50" height="50" relative="1" as="geometry">
            <mxPoint x="369.31" y="1550" as="sourcePoint" />
            <mxPoint x="251" y="1540" as="targetPoint" />
          </mxGeometry>
        </mxCell>
        <mxCell id="cOvMReYoXUqAnT7zXksZ-111" value="" style="endArrow=classic;html=1;rounded=0;" parent="1" edge="1">
          <mxGeometry width="50" height="50" relative="1" as="geometry">
            <mxPoint x="249.53000000000003" y="1600" as="sourcePoint" />
            <mxPoint x="249.53000000000003" y="1630" as="targetPoint" />
          </mxGeometry>
        </mxCell>
        <mxCell id="cOvMReYoXUqAnT7zXksZ-115" value="" style="endArrow=classic;html=1;rounded=0;entryX=0.564;entryY=-0.017;entryDx=0;entryDy=0;entryPerimeter=0;" parent="1" edge="1">
          <mxGeometry width="50" height="50" relative="1" as="geometry">
            <mxPoint x="440" y="1520" as="sourcePoint" />
            <mxPoint x="440.65999999999997" y="1548.9799999999998" as="targetPoint" />
          </mxGeometry>
        </mxCell>
        <mxCell id="cOvMReYoXUqAnT7zXksZ-118" value="Return to Course List" style="rounded=1;whiteSpace=wrap;html=1;" parent="1" vertex="1">
          <mxGeometry x="360" y="1550" width="130" height="60" as="geometry" />
        </mxCell>
        <mxCell id="cOvMReYoXUqAnT7zXksZ-119" value="" style="endArrow=none;html=1;rounded=0;exitX=1;exitY=0.5;exitDx=0;exitDy=0;" parent="1" source="cOvMReYoXUqAnT7zXksZ-123" edge="1">
          <mxGeometry width="50" height="50" relative="1" as="geometry">
            <mxPoint x="490" y="1579.66" as="sourcePoint" />
            <mxPoint x="520" y="1660" as="targetPoint" />
          </mxGeometry>
        </mxCell>
        <mxCell id="cOvMReYoXUqAnT7zXksZ-120" value="" style="endArrow=none;html=1;rounded=0;" parent="1" edge="1">
          <mxGeometry width="50" height="50" relative="1" as="geometry">
            <mxPoint x="520" y="1660" as="sourcePoint" />
            <mxPoint x="520" y="1320" as="targetPoint" />
          </mxGeometry>
        </mxCell>
        <mxCell id="cOvMReYoXUqAnT7zXksZ-121" value="" style="endArrow=classic;html=1;rounded=0;" parent="1" edge="1">
          <mxGeometry width="50" height="50" relative="1" as="geometry">
            <mxPoint x="520" y="1320" as="sourcePoint" />
            <mxPoint x="425" y="1320" as="targetPoint" />
          </mxGeometry>
        </mxCell>
        <mxCell id="cOvMReYoXUqAnT7zXksZ-122" value="" style="endArrow=classic;html=1;rounded=0;entryX=0.564;entryY=-0.017;entryDx=0;entryDy=0;entryPerimeter=0;" parent="1" edge="1">
          <mxGeometry width="50" height="50" relative="1" as="geometry">
            <mxPoint x="442.16" y="1610" as="sourcePoint" />
            <mxPoint x="442.82" y="1638.9799999999998" as="targetPoint" />
          </mxGeometry>
        </mxCell>
        <mxCell id="cOvMReYoXUqAnT7zXksZ-123" value="" style="rhombus;whiteSpace=wrap;html=1;" parent="1" vertex="1">
          <mxGeometry x="422.5" y="1640" width="40" height="40" as="geometry" />
        </mxCell>
        <mxCell id="cOvMReYoXUqAnT7zXksZ-128" value="Student Drop Course" style="text;align=center;fontStyle=1;verticalAlign=middle;spacingLeft=3;spacingRight=3;strokeColor=none;rotatable=0;points=[[0,0.5],[1,0.5]];portConstraint=eastwest;html=1;" parent="1" vertex="1">
          <mxGeometry x="240" y="814" width="80" height="26" as="geometry" />
        </mxCell>
        <mxCell id="cOvMReYoXUqAnT7zXksZ-130" value="Student Course Registration" style="text;align=center;fontStyle=1;verticalAlign=middle;spacingLeft=3;spacingRight=3;strokeColor=none;rotatable=0;points=[[0,0.5],[1,0.5]];portConstraint=eastwest;html=1;" parent="1" vertex="1">
          <mxGeometry x="-325" y="820" width="80" height="26" as="geometry" />
        </mxCell>
        <mxCell id="cOvMReYoXUqAnT7zXksZ-134" value="" style="endArrow=classic;html=1;rounded=0;" parent="1" edge="1">
          <mxGeometry width="50" height="50" relative="1" as="geometry">
            <mxPoint x="-139.99999999999997" y="840" as="sourcePoint" />
            <mxPoint x="-139.99999999999997" y="880" as="targetPoint" />
          </mxGeometry>
        </mxCell>
        <mxCell id="cOvMReYoXUqAnT7zXksZ-136" value="" style="endArrow=classic;html=1;rounded=0;" parent="1" edge="1">
          <mxGeometry width="50" height="50" relative="1" as="geometry">
            <mxPoint x="-139.5" y="1040" as="sourcePoint" />
            <mxPoint x="-140" y="1090" as="targetPoint" />
          </mxGeometry>
        </mxCell>
        <mxCell id="cOvMReYoXUqAnT7zXksZ-138" value="" style="endArrow=classic;html=1;rounded=0;exitX=0.5;exitY=1;exitDx=0;exitDy=0;" parent="1" target="cOvMReYoXUqAnT7zXksZ-139" edge="1">
          <mxGeometry width="50" height="50" relative="1" as="geometry">
            <mxPoint x="-140" y="1150" as="sourcePoint" />
            <mxPoint x="-137.69" y="1200" as="targetPoint" />
          </mxGeometry>
        </mxCell>
        <mxCell id="cOvMReYoXUqAnT7zXksZ-144" value="[System checks&amp;nbsp;&lt;div&gt;for Course Limit]&lt;/div&gt;" style="edgeLabel;html=1;align=center;verticalAlign=middle;resizable=0;points=[];" parent="cOvMReYoXUqAnT7zXksZ-138" vertex="1" connectable="0">
          <mxGeometry x="-0.1937" y="1" relative="1" as="geometry">
            <mxPoint as="offset" />
          </mxGeometry>
        </mxCell>
        <mxCell id="cOvMReYoXUqAnT7zXksZ-139" value="" style="rhombus;whiteSpace=wrap;html=1;" parent="1" vertex="1">
          <mxGeometry x="-160" y="1220" width="40" height="40" as="geometry" />
        </mxCell>
        <mxCell id="cOvMReYoXUqAnT7zXksZ-141" value="[Not Valid]" style="text;html=1;align=center;verticalAlign=middle;whiteSpace=wrap;rounded=0;" parent="1" vertex="1">
          <mxGeometry x="-120" y="1210" width="120" height="30" as="geometry" />
        </mxCell>
        <mxCell id="cOvMReYoXUqAnT7zXksZ-145" value="" style="endArrow=none;html=1;rounded=0;" parent="1" edge="1">
          <mxGeometry width="50" height="50" relative="1" as="geometry">
            <mxPoint x="-120" y="1239.79" as="sourcePoint" />
            <mxPoint x="70" y="1240" as="targetPoint" />
          </mxGeometry>
        </mxCell>
        <mxCell id="cOvMReYoXUqAnT7zXksZ-147" value="" style="endArrow=classic;html=1;rounded=0;" parent="1" edge="1">
          <mxGeometry width="50" height="50" relative="1" as="geometry">
            <mxPoint x="70" y="1240" as="sourcePoint" />
            <mxPoint x="70.38" y="1270" as="targetPoint" />
          </mxGeometry>
        </mxCell>
        <mxCell id="cOvMReYoXUqAnT7zXksZ-149" value="" style="endArrow=classic;html=1;rounded=0;exitX=0.5;exitY=1;exitDx=0;exitDy=0;entryX=0.5;entryY=0;entryDx=0;entryDy=0;" parent="1" target="cOvMReYoXUqAnT7zXksZ-151" edge="1">
          <mxGeometry width="50" height="50" relative="1" as="geometry">
            <mxPoint x="-140" y="1260" as="sourcePoint" />
            <mxPoint x="-140" y="1330" as="targetPoint" />
          </mxGeometry>
        </mxCell>
        <mxCell id="cOvMReYoXUqAnT7zXksZ-171" value="[System checks&amp;nbsp;&lt;div&gt;f&lt;span style=&quot;background-color: light-dark(#ffffff, var(--ge-dark-color, #121212)); color: light-dark(rgb(0, 0, 0), rgb(255, 255, 255));&quot;&gt;or Fee Status]&lt;/span&gt;&lt;/div&gt;" style="edgeLabel;html=1;align=center;verticalAlign=middle;resizable=0;points=[];" parent="cOvMReYoXUqAnT7zXksZ-149" vertex="1" connectable="0">
          <mxGeometry x="-0.3375" y="1" relative="1" as="geometry">
            <mxPoint as="offset" />
          </mxGeometry>
        </mxCell>
        <mxCell id="cOvMReYoXUqAnT7zXksZ-151" value="" style="rhombus;whiteSpace=wrap;html=1;" parent="1" vertex="1">
          <mxGeometry x="-160" y="1350" width="40" height="40" as="geometry" />
        </mxCell>
        <mxCell id="cOvMReYoXUqAnT7zXksZ-155" value="" style="endArrow=none;html=1;rounded=0;" parent="1" edge="1">
          <mxGeometry width="50" height="50" relative="1" as="geometry">
            <mxPoint x="-160" y="1369.3499999999997" as="sourcePoint" />
            <mxPoint x="-280" y="1370" as="targetPoint" />
          </mxGeometry>
        </mxCell>
        <mxCell id="cOvMReYoXUqAnT7zXksZ-156" value="[Not Valid]" style="text;html=1;align=center;verticalAlign=middle;whiteSpace=wrap;rounded=0;" parent="1" vertex="1">
          <mxGeometry x="-270" y="1340" width="120" height="30" as="geometry" />
        </mxCell>
        <mxCell id="cOvMReYoXUqAnT7zXksZ-158" value="" style="endArrow=classic;html=1;rounded=0;" parent="1" edge="1">
          <mxGeometry width="50" height="50" relative="1" as="geometry">
            <mxPoint x="-280" y="1370" as="sourcePoint" />
            <mxPoint x="-280" y="1400" as="targetPoint" />
          </mxGeometry>
        </mxCell>
        <mxCell id="cOvMReYoXUqAnT7zXksZ-160" value="Select &quot;Drop Course&quot;" style="rounded=1;whiteSpace=wrap;html=1;" parent="1" vertex="1">
          <mxGeometry x="385" y="1125" width="120" height="60" as="geometry" />
        </mxCell>
        <mxCell id="cOvMReYoXUqAnT7zXksZ-161" value="Login" style="rounded=1;whiteSpace=wrap;html=1;" parent="1" vertex="1">
          <mxGeometry x="382.5" y="880" width="120" height="60" as="geometry" />
        </mxCell>
        <mxCell id="cOvMReYoXUqAnT7zXksZ-162" value="Login to System" style="rounded=1;whiteSpace=wrap;html=1;" parent="1" vertex="1">
          <mxGeometry x="-200" y="880" width="120" height="60" as="geometry" />
        </mxCell>
        <mxCell id="cOvMReYoXUqAnT7zXksZ-164" value="Select &quot;Register Course&quot;" style="rounded=1;whiteSpace=wrap;html=1;" parent="1" vertex="1">
          <mxGeometry x="-200" y="1090" width="120" height="60" as="geometry" />
        </mxCell>
        <mxCell id="cOvMReYoXUqAnT7zXksZ-165" value="Show Error: &quot;Course Limit Reached&quot;" style="rounded=1;whiteSpace=wrap;html=1;" parent="1" vertex="1">
          <mxGeometry y="1270" width="120" height="60" as="geometry" />
        </mxCell>
        <mxCell id="cOvMReYoXUqAnT7zXksZ-166" value="Show Error: &quot;Unpaid Fees detected. Could not Register&quot;" style="rounded=1;whiteSpace=wrap;html=1;" parent="1" vertex="1">
          <mxGeometry x="-350" y="1400" width="130" height="60" as="geometry" />
        </mxCell>
        <mxCell id="cOvMReYoXUqAnT7zXksZ-174" value="" style="endArrow=classic;html=1;rounded=0;" parent="1" edge="1">
          <mxGeometry width="50" height="50" relative="1" as="geometry">
            <mxPoint x="-140.62" y="1390" as="sourcePoint" />
            <mxPoint x="-140" y="1470" as="targetPoint" />
          </mxGeometry>
        </mxCell>
        <mxCell id="cOvMReYoXUqAnT7zXksZ-178" value="Display Available Courses" style="rounded=1;whiteSpace=wrap;html=1;" parent="1" vertex="1">
          <mxGeometry x="-200" y="1470" width="120" height="60" as="geometry" />
        </mxCell>
        <mxCell id="cOvMReYoXUqAnT7zXksZ-179" value="" style="endArrow=classic;html=1;rounded=0;" parent="1" edge="1">
          <mxGeometry width="50" height="50" relative="1" as="geometry">
            <mxPoint x="-140" y="1530" as="sourcePoint" />
            <mxPoint x="-139" y="1590" as="targetPoint" />
          </mxGeometry>
        </mxCell>
        <mxCell id="cOvMReYoXUqAnT7zXksZ-180" value="Select Course" style="rounded=1;whiteSpace=wrap;html=1;" parent="1" vertex="1">
          <mxGeometry x="-200" y="1590" width="120" height="60" as="geometry" />
        </mxCell>
        <mxCell id="cOvMReYoXUqAnT7zXksZ-181" value="" style="endArrow=classic;html=1;rounded=0;" parent="1" edge="1">
          <mxGeometry width="50" height="50" relative="1" as="geometry">
            <mxPoint x="-140" y="1650" as="sourcePoint" />
            <mxPoint x="-139" y="1720" as="targetPoint" />
          </mxGeometry>
        </mxCell>
        <mxCell id="cOvMReYoXUqAnT7zXksZ-182" value="[System Checks&amp;nbsp;&lt;div&gt;for Availability]&lt;/div&gt;" style="edgeLabel;html=1;align=center;verticalAlign=middle;resizable=0;points=[];" parent="cOvMReYoXUqAnT7zXksZ-181" vertex="1" connectable="0">
          <mxGeometry x="-0.3135" relative="1" as="geometry">
            <mxPoint y="9" as="offset" />
          </mxGeometry>
        </mxCell>
        <mxCell id="cOvMReYoXUqAnT7zXksZ-183" value="Show Error: &quot;Course is Full&quot;" style="rounded=1;whiteSpace=wrap;html=1;" parent="1" vertex="1">
          <mxGeometry x="-100" y="1770" width="120" height="60" as="geometry" />
        </mxCell>
        <mxCell id="cOvMReYoXUqAnT7zXksZ-184" value="" style="rhombus;whiteSpace=wrap;html=1;" parent="1" vertex="1">
          <mxGeometry x="-160" y="1720" width="40" height="40" as="geometry" />
        </mxCell>
        <mxCell id="cOvMReYoXUqAnT7zXksZ-185" value="[Not Valid]" style="text;html=1;align=center;verticalAlign=middle;whiteSpace=wrap;rounded=0;" parent="1" vertex="1">
          <mxGeometry x="-140" y="1710" width="120" height="30" as="geometry" />
        </mxCell>
        <mxCell id="cOvMReYoXUqAnT7zXksZ-186" value="" style="endArrow=classic;html=1;rounded=0;" parent="1" edge="1">
          <mxGeometry width="50" height="50" relative="1" as="geometry">
            <mxPoint x="-140.62" y="1760" as="sourcePoint" />
            <mxPoint x="-140" y="1920" as="targetPoint" />
          </mxGeometry>
        </mxCell>
        <mxCell id="cOvMReYoXUqAnT7zXksZ-202" value="[System Registers&amp;nbsp;&lt;div&gt;the Student]&lt;/div&gt;" style="edgeLabel;html=1;align=center;verticalAlign=middle;resizable=0;points=[];" parent="cOvMReYoXUqAnT7zXksZ-186" vertex="1" connectable="0">
          <mxGeometry x="-0.0948" y="-1" relative="1" as="geometry">
            <mxPoint x="1" y="28" as="offset" />
          </mxGeometry>
        </mxCell>
        <mxCell id="cOvMReYoXUqAnT7zXksZ-187" value="" style="endArrow=none;html=1;rounded=0;" parent="1" edge="1">
          <mxGeometry width="50" height="50" relative="1" as="geometry">
            <mxPoint x="-120" y="1739.9999999999998" as="sourcePoint" />
            <mxPoint x="-40" y="1740" as="targetPoint" />
          </mxGeometry>
        </mxCell>
        <mxCell id="cOvMReYoXUqAnT7zXksZ-188" value="" style="endArrow=classic;html=1;rounded=0;" parent="1" edge="1">
          <mxGeometry width="50" height="50" relative="1" as="geometry">
            <mxPoint x="-40" y="1740" as="sourcePoint" />
            <mxPoint x="-40" y="1770" as="targetPoint" />
          </mxGeometry>
        </mxCell>
        <mxCell id="cOvMReYoXUqAnT7zXksZ-189" value="" style="endArrow=classic;html=1;rounded=0;" parent="1" edge="1">
          <mxGeometry width="50" height="50" relative="1" as="geometry">
            <mxPoint x="-40.31" y="1830" as="sourcePoint" />
            <mxPoint x="-40" y="1860" as="targetPoint" />
          </mxGeometry>
        </mxCell>
        <mxCell id="cOvMReYoXUqAnT7zXksZ-190" value="" style="rhombus;whiteSpace=wrap;html=1;" parent="1" vertex="1">
          <mxGeometry x="-60" y="1860" width="40" height="40" as="geometry" />
        </mxCell>
        <mxCell id="cOvMReYoXUqAnT7zXksZ-191" value="" style="endArrow=none;html=1;rounded=0;" parent="1" edge="1">
          <mxGeometry width="50" height="50" relative="1" as="geometry">
            <mxPoint x="-20" y="1880" as="sourcePoint" />
            <mxPoint x="40" y="1880" as="targetPoint" />
          </mxGeometry>
        </mxCell>
        <mxCell id="cOvMReYoXUqAnT7zXksZ-193" value="" style="endArrow=none;html=1;rounded=0;" parent="1" edge="1">
          <mxGeometry width="50" height="50" relative="1" as="geometry">
            <mxPoint x="40" y="1880" as="sourcePoint" />
            <mxPoint x="40" y="1620" as="targetPoint" />
          </mxGeometry>
        </mxCell>
        <mxCell id="cOvMReYoXUqAnT7zXksZ-194" value="" style="endArrow=classic;html=1;rounded=0;entryX=1;entryY=0.5;entryDx=0;entryDy=0;" parent="1" target="cOvMReYoXUqAnT7zXksZ-180" edge="1">
          <mxGeometry width="50" height="50" relative="1" as="geometry">
            <mxPoint x="40" y="1620" as="sourcePoint" />
            <mxPoint x="100" y="1570" as="targetPoint" />
          </mxGeometry>
        </mxCell>
        <mxCell id="cOvMReYoXUqAnT7zXksZ-197" value="Update Course Enrollment" style="rounded=1;whiteSpace=wrap;html=1;" parent="1" vertex="1">
          <mxGeometry x="-200" y="1920" width="120" height="60" as="geometry" />
        </mxCell>
        <mxCell id="cOvMReYoXUqAnT7zXksZ-200" value="System Confirmation" style="rounded=1;whiteSpace=wrap;html=1;" parent="1" vertex="1">
          <mxGeometry x="-207.5" y="2010" width="135" height="60" as="geometry" />
        </mxCell>
        <mxCell id="cOvMReYoXUqAnT7zXksZ-201" value="" style="endArrow=classic;html=1;rounded=0;" parent="1" edge="1">
          <mxGeometry width="50" height="50" relative="1" as="geometry">
            <mxPoint x="-140.47999999999996" y="1980" as="sourcePoint" />
            <mxPoint x="-140.47999999999996" y="2010" as="targetPoint" />
          </mxGeometry>
        </mxCell>
        <mxCell id="cOvMReYoXUqAnT7zXksZ-203" value="" style="endArrow=classic;html=1;rounded=0;" parent="1" edge="1">
          <mxGeometry width="50" height="50" relative="1" as="geometry">
            <mxPoint x="-280" y="2209.57" as="sourcePoint" />
            <mxPoint x="-160" y="2209.57" as="targetPoint" />
          </mxGeometry>
        </mxCell>
        <mxCell id="cOvMReYoXUqAnT7zXksZ-204" value="" style="rhombus;whiteSpace=wrap;html=1;" parent="1" vertex="1">
          <mxGeometry x="-160" y="2190" width="40" height="40" as="geometry" />
        </mxCell>
        <mxCell id="cOvMReYoXUqAnT7zXksZ-205" value="" style="endArrow=classic;html=1;rounded=0;" parent="1" edge="1">
          <mxGeometry width="50" height="50" relative="1" as="geometry">
            <mxPoint x="-139.99999999999997" y="2070" as="sourcePoint" />
            <mxPoint x="-139.99999999999997" y="2100" as="targetPoint" />
          </mxGeometry>
        </mxCell>
        <mxCell id="cOvMReYoXUqAnT7zXksZ-206" value="" style="endArrow=classic;html=1;rounded=0;entryX=1;entryY=0.5;entryDx=0;entryDy=0;" parent="1" target="cOvMReYoXUqAnT7zXksZ-204" edge="1">
          <mxGeometry width="50" height="50" relative="1" as="geometry">
            <mxPoint x="70" y="2210" as="sourcePoint" />
            <mxPoint x="-150" y="2130" as="targetPoint" />
          </mxGeometry>
        </mxCell>
        <mxCell id="cOvMReYoXUqAnT7zXksZ-207" value="" style="ellipse;whiteSpace=wrap;html=1;aspect=fixed;fillColor=#FFFFFF;strokeColor=#545454;" parent="1" vertex="1">
          <mxGeometry x="-165" y="2350" width="50" height="50" as="geometry" />
        </mxCell>
        <mxCell id="cOvMReYoXUqAnT7zXksZ-208" value="" style="ellipse;whiteSpace=wrap;html=1;aspect=fixed;fillColor=#545454;" parent="1" vertex="1">
          <mxGeometry x="-160" y="2355" width="40" height="40" as="geometry" />
        </mxCell>
        <mxCell id="cOvMReYoXUqAnT7zXksZ-210" value="Department Staff Manage Course" style="text;align=center;fontStyle=1;verticalAlign=middle;spacingLeft=3;spacingRight=3;strokeColor=none;rotatable=0;points=[[0,0.5],[1,0.5]];portConstraint=eastwest;html=1;" parent="1" vertex="1">
          <mxGeometry x="1100" y="797" width="80" height="26" as="geometry" />
        </mxCell>
        <mxCell id="cOvMReYoXUqAnT7zXksZ-213" value="" style="ellipse;whiteSpace=wrap;html=1;aspect=fixed;fillColor=#545454;" parent="1" vertex="1">
          <mxGeometry x="960" y="790" width="40" height="40" as="geometry" />
        </mxCell>
        <mxCell id="cOvMReYoXUqAnT7zXksZ-214" value="" style="endArrow=classic;html=1;rounded=0;exitX=0.414;exitY=1;exitDx=0;exitDy=0;exitPerimeter=0;" parent="1" source="cOvMReYoXUqAnT7zXksZ-304" edge="1">
          <mxGeometry width="50" height="50" relative="1" as="geometry">
            <mxPoint x="979.72" y="940" as="sourcePoint" />
            <mxPoint x="979.72" y="980" as="targetPoint" />
          </mxGeometry>
        </mxCell>
        <mxCell id="cOvMReYoXUqAnT7zXksZ-215" value="Dashboard" style="rounded=1;whiteSpace=wrap;html=1;" parent="1" vertex="1">
          <mxGeometry x="920" y="980" width="120" height="60" as="geometry" />
        </mxCell>
        <mxCell id="cOvMReYoXUqAnT7zXksZ-216" value="" style="endArrow=classic;html=1;rounded=0;" parent="1" edge="1">
          <mxGeometry width="50" height="50" relative="1" as="geometry">
            <mxPoint x="979.7199999999999" y="1040" as="sourcePoint" />
            <mxPoint x="979.7199999999999" y="1090" as="targetPoint" />
          </mxGeometry>
        </mxCell>
        <mxCell id="cOvMReYoXUqAnT7zXksZ-217" value="" style="rhombus;whiteSpace=wrap;html=1;" parent="1" vertex="1">
          <mxGeometry x="960" y="1090" width="40" height="40" as="geometry" />
        </mxCell>
        <mxCell id="cOvMReYoXUqAnT7zXksZ-218" value="" style="endArrow=none;html=1;rounded=0;" parent="1" edge="1">
          <mxGeometry width="50" height="50" relative="1" as="geometry">
            <mxPoint x="860" y="1110.28" as="sourcePoint" />
            <mxPoint x="960" y="1110" as="targetPoint" />
          </mxGeometry>
        </mxCell>
        <mxCell id="cOvMReYoXUqAnT7zXksZ-219" value="" style="endArrow=none;html=1;rounded=0;" parent="1" edge="1">
          <mxGeometry width="50" height="50" relative="1" as="geometry">
            <mxPoint x="1000" y="1110" as="sourcePoint" />
            <mxPoint x="1120" y="1110.28" as="targetPoint" />
          </mxGeometry>
        </mxCell>
        <mxCell id="cOvMReYoXUqAnT7zXksZ-220" value="" style="endArrow=classic;html=1;rounded=0;" parent="1" edge="1">
          <mxGeometry width="50" height="50" relative="1" as="geometry">
            <mxPoint x="859.67" y="1110" as="sourcePoint" />
            <mxPoint x="859.67" y="1160" as="targetPoint" />
          </mxGeometry>
        </mxCell>
        <mxCell id="cOvMReYoXUqAnT7zXksZ-221" value="" style="endArrow=classic;html=1;rounded=0;" parent="1" edge="1">
          <mxGeometry width="50" height="50" relative="1" as="geometry">
            <mxPoint x="980" y="1130" as="sourcePoint" />
            <mxPoint x="980" y="1180" as="targetPoint" />
          </mxGeometry>
        </mxCell>
        <mxCell id="cOvMReYoXUqAnT7zXksZ-222" value="" style="endArrow=classic;html=1;rounded=0;" parent="1" edge="1">
          <mxGeometry width="50" height="50" relative="1" as="geometry">
            <mxPoint x="1120" y="1110" as="sourcePoint" />
            <mxPoint x="1120" y="1160" as="targetPoint" />
          </mxGeometry>
        </mxCell>
        <mxCell id="cOvMReYoXUqAnT7zXksZ-223" value="[Edit]" style="text;html=1;align=center;verticalAlign=middle;whiteSpace=wrap;rounded=0;" parent="1" vertex="1">
          <mxGeometry x="1000" y="1080" width="120" height="30" as="geometry" />
        </mxCell>
        <mxCell id="cOvMReYoXUqAnT7zXksZ-226" value="[Remove]" style="text;html=1;align=center;verticalAlign=middle;whiteSpace=wrap;rounded=0;" parent="1" vertex="1">
          <mxGeometry x="960" y="1130" width="120" height="30" as="geometry" />
        </mxCell>
        <mxCell id="cOvMReYoXUqAnT7zXksZ-227" value="[Add]" style="text;html=1;align=center;verticalAlign=middle;whiteSpace=wrap;rounded=0;" parent="1" vertex="1">
          <mxGeometry x="860" y="1080" width="120" height="30" as="geometry" />
        </mxCell>
        <mxCell id="cOvMReYoXUqAnT7zXksZ-228" value="Select &quot;Add Course&quot;" style="rounded=1;whiteSpace=wrap;html=1;" parent="1" vertex="1">
          <mxGeometry x="800" y="1160" width="120" height="60" as="geometry" />
        </mxCell>
        <mxCell id="cOvMReYoXUqAnT7zXksZ-229" value="Select &quot;Edit Course&quot;" style="rounded=1;whiteSpace=wrap;html=1;" parent="1" vertex="1">
          <mxGeometry x="1060" y="1160" width="120" height="60" as="geometry" />
        </mxCell>
        <mxCell id="cOvMReYoXUqAnT7zXksZ-230" value="Select &quot;Remove Course&quot;" style="rounded=1;whiteSpace=wrap;html=1;" parent="1" vertex="1">
          <mxGeometry x="930" y="1180" width="120" height="60" as="geometry" />
        </mxCell>
        <mxCell id="cOvMReYoXUqAnT7zXksZ-231" value="" style="endArrow=classic;html=1;rounded=0;" parent="1" edge="1">
          <mxGeometry width="50" height="50" relative="1" as="geometry">
            <mxPoint x="860" y="1220" as="sourcePoint" />
            <mxPoint x="860" y="1270" as="targetPoint" />
          </mxGeometry>
        </mxCell>
        <mxCell id="cOvMReYoXUqAnT7zXksZ-232" value="Enter Course Info" style="rounded=1;whiteSpace=wrap;html=1;" parent="1" vertex="1">
          <mxGeometry x="800" y="1270" width="120" height="60" as="geometry" />
        </mxCell>
        <mxCell id="cOvMReYoXUqAnT7zXksZ-234" value="" style="endArrow=classic;html=1;rounded=0;" parent="1" edge="1">
          <mxGeometry width="50" height="50" relative="1" as="geometry">
            <mxPoint x="860" y="1330" as="sourcePoint" />
            <mxPoint x="860" y="1380" as="targetPoint" />
          </mxGeometry>
        </mxCell>
        <mxCell id="cOvMReYoXUqAnT7zXksZ-235" value="Confirm" style="rounded=1;whiteSpace=wrap;html=1;" parent="1" vertex="1">
          <mxGeometry x="800" y="1380" width="120" height="60" as="geometry" />
        </mxCell>
        <mxCell id="cOvMReYoXUqAnT7zXksZ-236" value="" style="endArrow=classic;html=1;rounded=0;" parent="1" edge="1">
          <mxGeometry width="50" height="50" relative="1" as="geometry">
            <mxPoint x="860" y="1440" as="sourcePoint" />
            <mxPoint x="860" y="1480" as="targetPoint" />
          </mxGeometry>
        </mxCell>
        <mxCell id="cOvMReYoXUqAnT7zXksZ-237" value="" style="rhombus;whiteSpace=wrap;html=1;" parent="1" vertex="1">
          <mxGeometry x="840" y="1480" width="40" height="40" as="geometry" />
        </mxCell>
        <mxCell id="cOvMReYoXUqAnT7zXksZ-238" value="" style="endArrow=none;html=1;rounded=0;" parent="1" edge="1">
          <mxGeometry width="50" height="50" relative="1" as="geometry">
            <mxPoint x="760" y="1500" as="sourcePoint" />
            <mxPoint x="840" y="1499.83" as="targetPoint" />
          </mxGeometry>
        </mxCell>
        <mxCell id="cOvMReYoXUqAnT7zXksZ-239" value="" style="endArrow=none;html=1;rounded=0;" parent="1" edge="1">
          <mxGeometry width="50" height="50" relative="1" as="geometry">
            <mxPoint x="760" y="1500" as="sourcePoint" />
            <mxPoint x="760" y="1010" as="targetPoint" />
          </mxGeometry>
        </mxCell>
        <mxCell id="cOvMReYoXUqAnT7zXksZ-244" value="[Add More&amp;nbsp;&lt;div&gt;Course&lt;span style=&quot;background-color: light-dark(#ffffff, var(--ge-dark-color, #121212)); color: light-dark(rgb(0, 0, 0), rgb(255, 255, 255));&quot;&gt;]&lt;/span&gt;&lt;/div&gt;" style="edgeLabel;html=1;align=center;verticalAlign=middle;resizable=0;points=[];" parent="cOvMReYoXUqAnT7zXksZ-239" vertex="1" connectable="0">
          <mxGeometry x="-0.0878" y="1" relative="1" as="geometry">
            <mxPoint as="offset" />
          </mxGeometry>
        </mxCell>
        <mxCell id="cOvMReYoXUqAnT7zXksZ-240" value="" style="endArrow=classic;html=1;rounded=0;entryX=-0.007;entryY=0.603;entryDx=0;entryDy=0;entryPerimeter=0;" parent="1" edge="1">
          <mxGeometry width="50" height="50" relative="1" as="geometry">
            <mxPoint x="760" y="1010" as="sourcePoint" />
            <mxPoint x="919.1599999999999" y="1010.0000000000001" as="targetPoint" />
          </mxGeometry>
        </mxCell>
        <mxCell id="cOvMReYoXUqAnT7zXksZ-245" value="" style="endArrow=classic;html=1;rounded=0;" parent="1" edge="1">
          <mxGeometry width="50" height="50" relative="1" as="geometry">
            <mxPoint x="989.71" y="1240" as="sourcePoint" />
            <mxPoint x="989.71" y="1290" as="targetPoint" />
          </mxGeometry>
        </mxCell>
        <mxCell id="cOvMReYoXUqAnT7zXksZ-246" value="Select Course to Delete" style="rounded=1;whiteSpace=wrap;html=1;" parent="1" vertex="1">
          <mxGeometry x="930" y="1290" width="120" height="60" as="geometry" />
        </mxCell>
        <mxCell id="cOvMReYoXUqAnT7zXksZ-247" value="" style="endArrow=classic;html=1;rounded=0;" parent="1" edge="1">
          <mxGeometry width="50" height="50" relative="1" as="geometry">
            <mxPoint x="990" y="1350" as="sourcePoint" />
            <mxPoint x="990" y="1400" as="targetPoint" />
          </mxGeometry>
        </mxCell>
        <mxCell id="cOvMReYoXUqAnT7zXksZ-248" value="Confirm" style="rounded=1;whiteSpace=wrap;html=1;" parent="1" vertex="1">
          <mxGeometry x="930" y="1400" width="120" height="60" as="geometry" />
        </mxCell>
        <mxCell id="cOvMReYoXUqAnT7zXksZ-249" value="" style="endArrow=classic;html=1;rounded=0;entryX=0.5;entryY=0;entryDx=0;entryDy=0;" parent="1" target="cOvMReYoXUqAnT7zXksZ-250" edge="1">
          <mxGeometry width="50" height="50" relative="1" as="geometry">
            <mxPoint x="990" y="1460" as="sourcePoint" />
            <mxPoint x="990" y="1500" as="targetPoint" />
          </mxGeometry>
        </mxCell>
        <mxCell id="cOvMReYoXUqAnT7zXksZ-250" value="" style="rhombus;whiteSpace=wrap;html=1;" parent="1" vertex="1">
          <mxGeometry x="970" y="1600" width="40" height="40" as="geometry" />
        </mxCell>
        <mxCell id="cOvMReYoXUqAnT7zXksZ-251" value="" style="endArrow=none;html=1;rounded=0;exitX=1;exitY=0.5;exitDx=0;exitDy=0;" parent="1" source="cOvMReYoXUqAnT7zXksZ-250" edge="1">
          <mxGeometry width="50" height="50" relative="1" as="geometry">
            <mxPoint x="1020" y="1619.3300000000002" as="sourcePoint" />
            <mxPoint x="1240" y="1619" as="targetPoint" />
          </mxGeometry>
        </mxCell>
        <mxCell id="cOvMReYoXUqAnT7zXksZ-252" value="" style="endArrow=none;html=1;rounded=0;" parent="1" edge="1">
          <mxGeometry width="50" height="50" relative="1" as="geometry">
            <mxPoint x="1240" y="1620" as="sourcePoint" />
            <mxPoint x="1240" y="1010" as="targetPoint" />
          </mxGeometry>
        </mxCell>
        <mxCell id="cOvMReYoXUqAnT7zXksZ-253" value="[More Course&amp;nbsp;&lt;div&gt;to Delete]&lt;/div&gt;" style="edgeLabel;html=1;align=center;verticalAlign=middle;resizable=0;points=[];" parent="cOvMReYoXUqAnT7zXksZ-252" vertex="1" connectable="0">
          <mxGeometry x="-0.0878" y="1" relative="1" as="geometry">
            <mxPoint y="-64" as="offset" />
          </mxGeometry>
        </mxCell>
        <mxCell id="cOvMReYoXUqAnT7zXksZ-254" value="" style="endArrow=classic;html=1;rounded=0;entryX=1.023;entryY=0.65;entryDx=0;entryDy=0;entryPerimeter=0;" parent="1" edge="1">
          <mxGeometry width="50" height="50" relative="1" as="geometry">
            <mxPoint x="1240" y="1010" as="sourcePoint" />
            <mxPoint x="1041.1699999999998" y="1009.59" as="targetPoint" />
          </mxGeometry>
        </mxCell>
        <mxCell id="cOvMReYoXUqAnT7zXksZ-255" value="" style="rhombus;whiteSpace=wrap;html=1;" parent="1" vertex="1">
          <mxGeometry x="580" y="1410" width="40" height="40" as="geometry" />
        </mxCell>
        <mxCell id="cOvMReYoXUqAnT7zXksZ-256" value="" style="endArrow=classic;html=1;rounded=0;" parent="1" edge="1">
          <mxGeometry width="50" height="50" relative="1" as="geometry">
            <mxPoint x="599.91" y="1360" as="sourcePoint" />
            <mxPoint x="599.6" y="1410" as="targetPoint" />
          </mxGeometry>
        </mxCell>
        <mxCell id="cOvMReYoXUqAnT7zXksZ-257" value="" style="endArrow=none;html=1;rounded=0;exitX=1;exitY=0.5;exitDx=0;exitDy=0;" parent="1" edge="1">
          <mxGeometry width="50" height="50" relative="1" as="geometry">
            <mxPoint x="620" y="1429.6" as="sourcePoint" />
            <mxPoint x="680" y="1430" as="targetPoint" />
          </mxGeometry>
        </mxCell>
        <mxCell id="cOvMReYoXUqAnT7zXksZ-258" value="" style="endArrow=none;html=1;rounded=0;" parent="1" edge="1">
          <mxGeometry width="50" height="50" relative="1" as="geometry">
            <mxPoint x="680" y="1430" as="sourcePoint" />
            <mxPoint x="680" y="1010" as="targetPoint" />
          </mxGeometry>
        </mxCell>
        <mxCell id="cOvMReYoXUqAnT7zXksZ-266" value="[Return&amp;nbsp;&lt;div&gt;to Dashboard]&lt;/div&gt;" style="edgeLabel;html=1;align=center;verticalAlign=middle;resizable=0;points=[];" parent="cOvMReYoXUqAnT7zXksZ-258" vertex="1" connectable="0">
          <mxGeometry x="0.2752" y="-2" relative="1" as="geometry">
            <mxPoint as="offset" />
          </mxGeometry>
        </mxCell>
        <mxCell id="cOvMReYoXUqAnT7zXksZ-259" value="" style="endArrow=classic;html=1;rounded=0;" parent="1" edge="1">
          <mxGeometry width="50" height="50" relative="1" as="geometry">
            <mxPoint x="680" y="1010" as="sourcePoint" />
            <mxPoint x="505" y="1009.6" as="targetPoint" />
          </mxGeometry>
        </mxCell>
        <mxCell id="cOvMReYoXUqAnT7zXksZ-261" value="" style="endArrow=classic;html=1;rounded=0;" parent="1" edge="1">
          <mxGeometry width="50" height="50" relative="1" as="geometry">
            <mxPoint x="-140.04" y="940" as="sourcePoint" />
            <mxPoint x="-140" y="980" as="targetPoint" />
          </mxGeometry>
        </mxCell>
        <mxCell id="cOvMReYoXUqAnT7zXksZ-263" value="Dashboard" style="rounded=1;whiteSpace=wrap;html=1;" parent="1" vertex="1">
          <mxGeometry x="-200" y="980" width="120" height="60" as="geometry" />
        </mxCell>
        <mxCell id="cOvMReYoXUqAnT7zXksZ-264" value="" style="endArrow=classic;html=1;rounded=0;" parent="1" edge="1">
          <mxGeometry width="50" height="50" relative="1" as="geometry">
            <mxPoint x="439.96000000000004" y="940" as="sourcePoint" />
            <mxPoint x="440" y="980" as="targetPoint" />
          </mxGeometry>
        </mxCell>
        <mxCell id="cOvMReYoXUqAnT7zXksZ-265" value="Dashboard" style="rounded=1;whiteSpace=wrap;html=1;" parent="1" vertex="1">
          <mxGeometry x="380" y="980" width="120" height="60" as="geometry" />
        </mxCell>
        <mxCell id="cOvMReYoXUqAnT7zXksZ-267" value="" style="endArrow=classic;html=1;rounded=0;exitX=0.521;exitY=0.978;exitDx=0;exitDy=0;exitPerimeter=0;" parent="1" source="cOvMReYoXUqAnT7zXksZ-96" edge="1">
          <mxGeometry width="50" height="50" relative="1" as="geometry">
            <mxPoint x="247.21000000000004" y="1690" as="sourcePoint" />
            <mxPoint x="250" y="1710" as="targetPoint" />
          </mxGeometry>
        </mxCell>
        <mxCell id="cOvMReYoXUqAnT7zXksZ-268" value="" style="rhombus;whiteSpace=wrap;html=1;" parent="1" vertex="1">
          <mxGeometry x="230" y="1710" width="40" height="40" as="geometry" />
        </mxCell>
        <mxCell id="cOvMReYoXUqAnT7zXksZ-270" value="" style="endArrow=none;html=1;rounded=0;entryX=0.5;entryY=1;entryDx=0;entryDy=0;" parent="1" target="cOvMReYoXUqAnT7zXksZ-268" edge="1">
          <mxGeometry width="50" height="50" relative="1" as="geometry">
            <mxPoint x="250" y="1780" as="sourcePoint" />
            <mxPoint x="255" y="1796.060606060606" as="targetPoint" />
          </mxGeometry>
        </mxCell>
        <mxCell id="cOvMReYoXUqAnT7zXksZ-271" value="" style="endArrow=classic;html=1;rounded=0;entryX=0;entryY=0.5;entryDx=0;entryDy=0;" parent="1" edge="1">
          <mxGeometry width="50" height="50" relative="1" as="geometry">
            <mxPoint x="250" y="1780" as="sourcePoint" />
            <mxPoint x="425" y="1780" as="targetPoint" />
          </mxGeometry>
        </mxCell>
        <mxCell id="cOvMReYoXUqAnT7zXksZ-272" value="Logout" style="rounded=1;whiteSpace=wrap;html=1;" parent="1" vertex="1">
          <mxGeometry x="385" y="1830" width="120" height="60" as="geometry" />
        </mxCell>
        <mxCell id="cOvMReYoXUqAnT7zXksZ-273" value="" style="endArrow=classic;html=1;rounded=0;exitX=0.5;exitY=1;exitDx=0;exitDy=0;" parent="1" edge="1">
          <mxGeometry width="50" height="50" relative="1" as="geometry">
            <mxPoint x="444.62" y="1890" as="sourcePoint" />
            <mxPoint x="444.62" y="1920" as="targetPoint" />
          </mxGeometry>
        </mxCell>
        <mxCell id="cOvMReYoXUqAnT7zXksZ-274" value="" style="endArrow=none;html=1;rounded=0;" parent="1" edge="1">
          <mxGeometry width="50" height="50" relative="1" as="geometry">
            <mxPoint x="600" y="1780" as="sourcePoint" />
            <mxPoint x="600" y="1450" as="targetPoint" />
          </mxGeometry>
        </mxCell>
        <mxCell id="cOvMReYoXUqAnT7zXksZ-275" value="" style="endArrow=none;html=1;rounded=0;exitX=1;exitY=0.5;exitDx=0;exitDy=0;" parent="1" edge="1">
          <mxGeometry width="50" height="50" relative="1" as="geometry">
            <mxPoint x="465" y="1728.8899999999999" as="sourcePoint" />
            <mxPoint x="525" y="1729.29" as="targetPoint" />
          </mxGeometry>
        </mxCell>
        <mxCell id="cOvMReYoXUqAnT7zXksZ-276" value="" style="endArrow=none;html=1;rounded=0;" parent="1" edge="1">
          <mxGeometry width="50" height="50" relative="1" as="geometry">
            <mxPoint x="312.5" y="1730" as="sourcePoint" />
            <mxPoint x="312.5" y="1010" as="targetPoint" />
          </mxGeometry>
        </mxCell>
        <mxCell id="cOvMReYoXUqAnT7zXksZ-277" value="[Return&amp;nbsp;&lt;div&gt;to Dashboard]&lt;/div&gt;" style="edgeLabel;html=1;align=center;verticalAlign=middle;resizable=0;points=[];" parent="cOvMReYoXUqAnT7zXksZ-276" vertex="1" connectable="0">
          <mxGeometry x="0.2752" y="-2" relative="1" as="geometry">
            <mxPoint as="offset" />
          </mxGeometry>
        </mxCell>
        <mxCell id="cOvMReYoXUqAnT7zXksZ-278" value="" style="endArrow=classic;html=1;rounded=0;entryX=1;entryY=0.5;entryDx=0;entryDy=0;" parent="1" target="cOvMReYoXUqAnT7zXksZ-263" edge="1">
          <mxGeometry width="50" height="50" relative="1" as="geometry">
            <mxPoint x="160" y="1010" as="sourcePoint" />
            <mxPoint x="340" y="1000" as="targetPoint" />
          </mxGeometry>
        </mxCell>
        <mxCell id="cOvMReYoXUqAnT7zXksZ-280" value="" style="rhombus;whiteSpace=wrap;html=1;" parent="1" vertex="1">
          <mxGeometry x="-305" y="1560" width="55" height="50" as="geometry" />
        </mxCell>
        <mxCell id="cOvMReYoXUqAnT7zXksZ-281" value="" style="endArrow=none;html=1;rounded=0;" parent="1" edge="1">
          <mxGeometry width="50" height="50" relative="1" as="geometry">
            <mxPoint x="-400" y="1590" as="sourcePoint" />
            <mxPoint x="-305" y="1590" as="targetPoint" />
          </mxGeometry>
        </mxCell>
        <mxCell id="cOvMReYoXUqAnT7zXksZ-283" value="" style="endArrow=none;html=1;rounded=0;" parent="1" edge="1">
          <mxGeometry width="50" height="50" relative="1" as="geometry">
            <mxPoint x="-400" y="1020" as="sourcePoint" />
            <mxPoint x="-400" y="1590" as="targetPoint" />
          </mxGeometry>
        </mxCell>
        <mxCell id="cOvMReYoXUqAnT7zXksZ-285" value="[Return&amp;nbsp;&lt;div&gt;to Dashboard]&lt;/div&gt;" style="edgeLabel;html=1;align=center;verticalAlign=middle;resizable=0;points=[];" parent="cOvMReYoXUqAnT7zXksZ-283" vertex="1" connectable="0">
          <mxGeometry x="0.0913" relative="1" as="geometry">
            <mxPoint as="offset" />
          </mxGeometry>
        </mxCell>
        <mxCell id="cOvMReYoXUqAnT7zXksZ-284" value="" style="endArrow=classic;html=1;rounded=0;" parent="1" edge="1">
          <mxGeometry width="50" height="50" relative="1" as="geometry">
            <mxPoint x="-399.61" y="1020" as="sourcePoint" />
            <mxPoint x="-200" y="1020" as="targetPoint" />
          </mxGeometry>
        </mxCell>
        <mxCell id="cOvMReYoXUqAnT7zXksZ-286" value="" style="endArrow=none;html=1;rounded=0;entryX=0.388;entryY=0.867;entryDx=0;entryDy=0;entryPerimeter=0;" parent="1" target="cOvMReYoXUqAnT7zXksZ-280" edge="1">
          <mxGeometry width="50" height="50" relative="1" as="geometry">
            <mxPoint x="-280" y="2210" as="sourcePoint" />
            <mxPoint x="-272.77" y="1615" as="targetPoint" />
          </mxGeometry>
        </mxCell>
        <mxCell id="cOvMReYoXUqAnT7zXksZ-287" value="" style="endArrow=classic;html=1;rounded=0;exitX=0.5;exitY=1;exitDx=0;exitDy=0;" parent="1" source="cOvMReYoXUqAnT7zXksZ-290" edge="1">
          <mxGeometry width="50" height="50" relative="1" as="geometry">
            <mxPoint x="-140.61" y="2160" as="sourcePoint" />
            <mxPoint x="-140.61" y="2190" as="targetPoint" />
          </mxGeometry>
        </mxCell>
        <mxCell id="cOvMReYoXUqAnT7zXksZ-288" value="Logout" style="rounded=1;whiteSpace=wrap;html=1;" parent="1" vertex="1">
          <mxGeometry x="-200" y="2260" width="120" height="60" as="geometry" />
        </mxCell>
        <mxCell id="cOvMReYoXUqAnT7zXksZ-290" value="" style="rhombus;whiteSpace=wrap;html=1;" parent="1" vertex="1">
          <mxGeometry x="-160" y="2100" width="40" height="40" as="geometry" />
        </mxCell>
        <mxCell id="cOvMReYoXUqAnT7zXksZ-292" value="" style="endArrow=none;html=1;rounded=0;" parent="1" target="cOvMReYoXUqAnT7zXksZ-291" edge="1">
          <mxGeometry width="50" height="50" relative="1" as="geometry">
            <mxPoint x="70" y="2210" as="sourcePoint" />
            <mxPoint x="70" y="1330" as="targetPoint" />
          </mxGeometry>
        </mxCell>
        <mxCell id="cOvMReYoXUqAnT7zXksZ-291" value="" style="rhombus;whiteSpace=wrap;html=1;" parent="1" vertex="1">
          <mxGeometry x="45" y="1380" width="55" height="50" as="geometry" />
        </mxCell>
        <mxCell id="cOvMReYoXUqAnT7zXksZ-293" value="" style="endArrow=classic;html=1;rounded=0;" parent="1" edge="1">
          <mxGeometry width="50" height="50" relative="1" as="geometry">
            <mxPoint x="-277" y="1460" as="sourcePoint" />
            <mxPoint x="-277" y="1560" as="targetPoint" />
          </mxGeometry>
        </mxCell>
        <mxCell id="cOvMReYoXUqAnT7zXksZ-294" value="" style="endArrow=classic;html=1;rounded=0;entryX=0.5;entryY=0;entryDx=0;entryDy=0;" parent="1" target="cOvMReYoXUqAnT7zXksZ-291" edge="1">
          <mxGeometry width="50" height="50" relative="1" as="geometry">
            <mxPoint x="72" y="1330" as="sourcePoint" />
            <mxPoint x="72" y="1370" as="targetPoint" />
          </mxGeometry>
        </mxCell>
        <mxCell id="cOvMReYoXUqAnT7zXksZ-295" value="" style="endArrow=classic;html=1;rounded=0;exitX=0.5;exitY=1;exitDx=0;exitDy=0;" parent="1" edge="1">
          <mxGeometry width="50" height="50" relative="1" as="geometry">
            <mxPoint x="-139.39" y="2230" as="sourcePoint" />
            <mxPoint x="-140" y="2260" as="targetPoint" />
          </mxGeometry>
        </mxCell>
        <mxCell id="cOvMReYoXUqAnT7zXksZ-297" value="" style="endArrow=classic;html=1;rounded=0;exitX=0.5;exitY=1;exitDx=0;exitDy=0;" parent="1" edge="1">
          <mxGeometry width="50" height="50" relative="1" as="geometry">
            <mxPoint x="-140.64" y="2320" as="sourcePoint" />
            <mxPoint x="-141.25" y="2350" as="targetPoint" />
          </mxGeometry>
        </mxCell>
        <mxCell id="cOvMReYoXUqAnT7zXksZ-301" value="" style="endArrow=none;html=1;rounded=0;" parent="1" edge="1">
          <mxGeometry width="50" height="50" relative="1" as="geometry">
            <mxPoint x="-520" y="2120" as="sourcePoint" />
            <mxPoint x="-157.5" y="2120" as="targetPoint" />
          </mxGeometry>
        </mxCell>
        <mxCell id="cOvMReYoXUqAnT7zXksZ-302" value="" style="endArrow=none;html=1;rounded=0;" parent="1" edge="1">
          <mxGeometry width="50" height="50" relative="1" as="geometry">
            <mxPoint x="-520" y="2120" as="sourcePoint" />
            <mxPoint x="-520" y="1000" as="targetPoint" />
          </mxGeometry>
        </mxCell>
        <mxCell id="cOvMReYoXUqAnT7zXksZ-303" value="" style="endArrow=classic;html=1;rounded=0;" parent="1" edge="1">
          <mxGeometry width="50" height="50" relative="1" as="geometry">
            <mxPoint x="-520" y="1000" as="sourcePoint" />
            <mxPoint x="-200" y="1000" as="targetPoint" />
          </mxGeometry>
        </mxCell>
        <mxCell id="cOvMReYoXUqAnT7zXksZ-304" value="Login" style="rounded=1;whiteSpace=wrap;html=1;" parent="1" vertex="1">
          <mxGeometry x="930" y="860" width="120" height="60" as="geometry" />
        </mxCell>
        <mxCell id="cOvMReYoXUqAnT7zXksZ-306" value="" style="endArrow=classic;html=1;rounded=0;" parent="1" edge="1">
          <mxGeometry width="50" height="50" relative="1" as="geometry">
            <mxPoint x="980" y="830" as="sourcePoint" />
            <mxPoint x="980" y="860" as="targetPoint" />
          </mxGeometry>
        </mxCell>
        <mxCell id="cOvMReYoXUqAnT7zXksZ-309" value="" style="endArrow=classic;html=1;rounded=0;exitX=0.5;exitY=1;exitDx=0;exitDy=0;" parent="1" source="cOvMReYoXUqAnT7zXksZ-229" edge="1">
          <mxGeometry width="50" height="50" relative="1" as="geometry">
            <mxPoint x="1119.71" y="1240" as="sourcePoint" />
            <mxPoint x="1120" y="1260" as="targetPoint" />
          </mxGeometry>
        </mxCell>
        <mxCell id="cOvMReYoXUqAnT7zXksZ-310" value="Select Course&amp;nbsp;&lt;div&gt;to Edit&lt;/div&gt;" style="rounded=1;whiteSpace=wrap;html=1;" parent="1" vertex="1">
          <mxGeometry x="1060" y="1260" width="120" height="60" as="geometry" />
        </mxCell>
        <mxCell id="cOvMReYoXUqAnT7zXksZ-311" value="Confirm" style="rounded=1;whiteSpace=wrap;html=1;" parent="1" vertex="1">
          <mxGeometry x="1060" y="1460" width="120" height="60" as="geometry" />
        </mxCell>
        <mxCell id="cOvMReYoXUqAnT7zXksZ-312" value="" style="endArrow=classic;html=1;rounded=0;exitX=0.5;exitY=1;exitDx=0;exitDy=0;" parent="1" edge="1">
          <mxGeometry width="50" height="50" relative="1" as="geometry">
            <mxPoint x="1120" y="1320" as="sourcePoint" />
            <mxPoint x="1120" y="1360" as="targetPoint" />
          </mxGeometry>
        </mxCell>
        <mxCell id="cOvMReYoXUqAnT7zXksZ-313" value="Enter Edit Info" style="rounded=1;whiteSpace=wrap;html=1;" parent="1" vertex="1">
          <mxGeometry x="1060" y="1360" width="120" height="60" as="geometry" />
        </mxCell>
        <mxCell id="cOvMReYoXUqAnT7zXksZ-314" value="" style="endArrow=classic;html=1;rounded=0;exitX=0.5;exitY=1;exitDx=0;exitDy=0;" parent="1" edge="1">
          <mxGeometry width="50" height="50" relative="1" as="geometry">
            <mxPoint x="1119.68" y="1420" as="sourcePoint" />
            <mxPoint x="1119.68" y="1460" as="targetPoint" />
          </mxGeometry>
        </mxCell>
        <mxCell id="cOvMReYoXUqAnT7zXksZ-316" value="" style="endArrow=classic;html=1;rounded=0;exitX=0.5;exitY=1;exitDx=0;exitDy=0;" parent="1" edge="1">
          <mxGeometry width="50" height="50" relative="1" as="geometry">
            <mxPoint x="1119.64" y="1520" as="sourcePoint" />
            <mxPoint x="1119.64" y="1560" as="targetPoint" />
          </mxGeometry>
        </mxCell>
        <mxCell id="cOvMReYoXUqAnT7zXksZ-317" value="" style="rhombus;whiteSpace=wrap;html=1;" parent="1" vertex="1">
          <mxGeometry x="1100" y="1560" width="40" height="40" as="geometry" />
        </mxCell>
        <mxCell id="cOvMReYoXUqAnT7zXksZ-318" value="" style="endArrow=none;html=1;rounded=0;exitX=1;exitY=0.5;exitDx=0;exitDy=0;" parent="1" edge="1">
          <mxGeometry width="50" height="50" relative="1" as="geometry">
            <mxPoint x="1140" y="1580.5" as="sourcePoint" />
            <mxPoint x="1340" y="1579.5" as="targetPoint" />
          </mxGeometry>
        </mxCell>
        <mxCell id="cOvMReYoXUqAnT7zXksZ-319" value="" style="endArrow=none;html=1;rounded=0;" parent="1" edge="1">
          <mxGeometry width="50" height="50" relative="1" as="geometry">
            <mxPoint x="1340" y="1580" as="sourcePoint" />
            <mxPoint x="1340" y="990" as="targetPoint" />
          </mxGeometry>
        </mxCell>
        <mxCell id="cOvMReYoXUqAnT7zXksZ-320" value="[More Course&amp;nbsp;&lt;div&gt;to Edit]&lt;/div&gt;" style="edgeLabel;html=1;align=center;verticalAlign=middle;resizable=0;points=[];" parent="cOvMReYoXUqAnT7zXksZ-319" vertex="1" connectable="0">
          <mxGeometry x="-0.0878" y="1" relative="1" as="geometry">
            <mxPoint y="-64" as="offset" />
          </mxGeometry>
        </mxCell>
        <mxCell id="cOvMReYoXUqAnT7zXksZ-321" value="" style="endArrow=classic;html=1;rounded=0;entryX=1.023;entryY=0.65;entryDx=0;entryDy=0;entryPerimeter=0;" parent="1" edge="1">
          <mxGeometry width="50" height="50" relative="1" as="geometry">
            <mxPoint x="1340" y="990" as="sourcePoint" />
            <mxPoint x="1039.9999999999998" y="990" as="targetPoint" />
          </mxGeometry>
        </mxCell>
        <mxCell id="cOvMReYoXUqAnT7zXksZ-325" value="" style="ellipse;whiteSpace=wrap;html=1;aspect=fixed;fillColor=#545454;" parent="1" vertex="1">
          <mxGeometry x="970" y="1880" width="40" height="40" as="geometry" />
        </mxCell>
        <mxCell id="cOvMReYoXUqAnT7zXksZ-326" value="" style="endArrow=classic;html=1;rounded=0;entryX=1;entryY=0.5;entryDx=0;entryDy=0;" parent="1" target="cOvMReYoXUqAnT7zXksZ-327" edge="1">
          <mxGeometry width="50" height="50" relative="1" as="geometry">
            <mxPoint x="1120" y="1740" as="sourcePoint" />
            <mxPoint x="1020" y="1655" as="targetPoint" />
          </mxGeometry>
        </mxCell>
        <mxCell id="cOvMReYoXUqAnT7zXksZ-327" value="" style="rhombus;whiteSpace=wrap;html=1;" parent="1" vertex="1">
          <mxGeometry x="970" y="1720" width="40" height="40" as="geometry" />
        </mxCell>
        <mxCell id="cOvMReYoXUqAnT7zXksZ-328" value="" style="endArrow=classic;html=1;rounded=0;exitX=0.5;exitY=1;exitDx=0;exitDy=0;" parent="1" source="cOvMReYoXUqAnT7zXksZ-327" edge="1">
          <mxGeometry width="50" height="50" relative="1" as="geometry">
            <mxPoint x="990" y="1715" as="sourcePoint" />
            <mxPoint x="990" y="1790" as="targetPoint" />
          </mxGeometry>
        </mxCell>
        <mxCell id="cOvMReYoXUqAnT7zXksZ-329" value="" style="endArrow=classic;html=1;rounded=0;entryX=0;entryY=0.5;entryDx=0;entryDy=0;" parent="1" edge="1">
          <mxGeometry width="50" height="50" relative="1" as="geometry">
            <mxPoint x="860" y="1740" as="sourcePoint" />
            <mxPoint x="970" y="1740" as="targetPoint" />
          </mxGeometry>
        </mxCell>
        <mxCell id="cOvMReYoXUqAnT7zXksZ-330" value="Logout" style="rounded=1;whiteSpace=wrap;html=1;" parent="1" vertex="1">
          <mxGeometry x="930" y="1790" width="120" height="60" as="geometry" />
        </mxCell>
        <mxCell id="cOvMReYoXUqAnT7zXksZ-331" value="" style="endArrow=classic;html=1;rounded=0;exitX=0.5;exitY=1;exitDx=0;exitDy=0;entryX=0.5;entryY=0;entryDx=0;entryDy=0;" parent="1" target="cOvMReYoXUqAnT7zXksZ-333" edge="1">
          <mxGeometry width="50" height="50" relative="1" as="geometry">
            <mxPoint x="989.72" y="1850" as="sourcePoint" />
            <mxPoint x="990" y="1870" as="targetPoint" />
          </mxGeometry>
        </mxCell>
        <mxCell id="cOvMReYoXUqAnT7zXksZ-332" value="" style="endArrow=classic;html=1;rounded=0;" parent="1" edge="1">
          <mxGeometry width="50" height="50" relative="1" as="geometry">
            <mxPoint x="989.58" y="1640" as="sourcePoint" />
            <mxPoint x="990" y="1720" as="targetPoint" />
          </mxGeometry>
        </mxCell>
        <mxCell id="cOvMReYoXUqAnT7zXksZ-335" value="" style="endArrow=none;html=1;rounded=0;" parent="1" edge="1">
          <mxGeometry width="50" height="50" relative="1" as="geometry">
            <mxPoint x="1120" y="1740" as="sourcePoint" />
            <mxPoint x="1120" y="1600" as="targetPoint" />
          </mxGeometry>
        </mxCell>
        <mxCell id="cOvMReYoXUqAnT7zXksZ-337" value="" style="endArrow=none;html=1;rounded=0;" parent="1" edge="1">
          <mxGeometry width="50" height="50" relative="1" as="geometry">
            <mxPoint x="860" y="1740" as="sourcePoint" />
            <mxPoint x="860" y="1520" as="targetPoint" />
          </mxGeometry>
        </mxCell>
        <mxCell id="cOvMReYoXUqAnT7zXksZ-338" value="&lt;span style=&quot;color: rgb(0, 0, 0); font-family: Helvetica; font-size: 12px; font-style: normal; font-variant-ligatures: normal; font-variant-caps: normal; font-weight: 700; letter-spacing: normal; orphans: 2; text-align: center; text-indent: 0px; text-transform: none; widows: 2; word-spacing: 0px; -webkit-text-stroke-width: 0px; white-space: nowrap; background-color: rgb(251, 251, 251); text-decoration-thickness: initial; text-decoration-style: initial; text-decoration-color: initial; display: inline !important; float: none;&quot;&gt;Department Staff Create Report&lt;/span&gt;" style="text;whiteSpace=wrap;html=1;" parent="1" vertex="1">
          <mxGeometry x="1630" y="797" width="220" height="40" as="geometry" />
        </mxCell>
        <mxCell id="cOvMReYoXUqAnT7zXksZ-339" value="" style="ellipse;whiteSpace=wrap;html=1;aspect=fixed;fillColor=#545454;" parent="1" vertex="1">
          <mxGeometry x="1520" y="780" width="40" height="40" as="geometry" />
        </mxCell>
        <mxCell id="cOvMReYoXUqAnT7zXksZ-340" value="" style="endArrow=classic;html=1;rounded=0;exitX=0.5;exitY=1;exitDx=0;exitDy=0;" parent="1" source="cOvMReYoXUqAnT7zXksZ-342" edge="1">
          <mxGeometry width="50" height="50" relative="1" as="geometry">
            <mxPoint x="1539.72" y="920" as="sourcePoint" />
            <mxPoint x="1539.72" y="960" as="targetPoint" />
          </mxGeometry>
        </mxCell>
        <mxCell id="cOvMReYoXUqAnT7zXksZ-341" value="Dashboard" style="rounded=1;whiteSpace=wrap;html=1;" parent="1" vertex="1">
          <mxGeometry x="1480" y="960" width="120" height="60" as="geometry" />
        </mxCell>
        <mxCell id="cOvMReYoXUqAnT7zXksZ-342" value="Login" style="rounded=1;whiteSpace=wrap;html=1;" parent="1" vertex="1">
          <mxGeometry x="1480" y="840" width="120" height="60" as="geometry" />
        </mxCell>
        <mxCell id="cOvMReYoXUqAnT7zXksZ-343" value="" style="endArrow=classic;html=1;rounded=0;" parent="1" edge="1">
          <mxGeometry width="50" height="50" relative="1" as="geometry">
            <mxPoint x="1540" y="810" as="sourcePoint" />
            <mxPoint x="1540" y="840" as="targetPoint" />
          </mxGeometry>
        </mxCell>
        <mxCell id="cOvMReYoXUqAnT7zXksZ-344" value="" style="endArrow=classic;html=1;rounded=0;exitX=0.414;exitY=1;exitDx=0;exitDy=0;exitPerimeter=0;" parent="1" edge="1">
          <mxGeometry width="50" height="50" relative="1" as="geometry">
            <mxPoint x="1540" y="1020" as="sourcePoint" />
            <mxPoint x="1539.72" y="1080" as="targetPoint" />
          </mxGeometry>
        </mxCell>
        <mxCell id="cOvMReYoXUqAnT7zXksZ-345" value="Select &quot;Create Report&quot;" style="rounded=1;whiteSpace=wrap;html=1;" parent="1" vertex="1">
          <mxGeometry x="1480" y="1080" width="120" height="60" as="geometry" />
        </mxCell>
        <mxCell id="cOvMReYoXUqAnT7zXksZ-346" value="" style="endArrow=classic;html=1;rounded=0;exitX=0.414;exitY=1;exitDx=0;exitDy=0;exitPerimeter=0;" parent="1" edge="1">
          <mxGeometry width="50" height="50" relative="1" as="geometry">
            <mxPoint x="1540" y="1140" as="sourcePoint" />
            <mxPoint x="1539.72" y="1200" as="targetPoint" />
          </mxGeometry>
        </mxCell>
        <mxCell id="cOvMReYoXUqAnT7zXksZ-347" value="Display Report Options" style="rounded=1;whiteSpace=wrap;html=1;" parent="1" vertex="1">
          <mxGeometry x="1480" y="1200" width="120" height="60" as="geometry" />
        </mxCell>
        <mxCell id="cOvMReYoXUqAnT7zXksZ-348" value="" style="endArrow=classic;html=1;rounded=0;exitX=0.414;exitY=1;exitDx=0;exitDy=0;exitPerimeter=0;" parent="1" edge="1">
          <mxGeometry width="50" height="50" relative="1" as="geometry">
            <mxPoint x="1540" y="1260" as="sourcePoint" />
            <mxPoint x="1539.72" y="1320" as="targetPoint" />
          </mxGeometry>
        </mxCell>
        <mxCell id="cOvMReYoXUqAnT7zXksZ-349" value="Display&amp;nbsp;&lt;div&gt;Report Types&lt;/div&gt;" style="rounded=1;whiteSpace=wrap;html=1;" parent="1" vertex="1">
          <mxGeometry x="1480" y="1320" width="120" height="60" as="geometry" />
        </mxCell>
        <mxCell id="cOvMReYoXUqAnT7zXksZ-350" value="" style="endArrow=classic;html=1;rounded=0;exitX=0.414;exitY=1;exitDx=0;exitDy=0;exitPerimeter=0;" parent="1" edge="1">
          <mxGeometry width="50" height="50" relative="1" as="geometry">
            <mxPoint x="1540" y="1380" as="sourcePoint" />
            <mxPoint x="1539.72" y="1440" as="targetPoint" />
          </mxGeometry>
        </mxCell>
        <mxCell id="cOvMReYoXUqAnT7zXksZ-351" value="Enter Course Info &amp;amp; Student Enrolled Info" style="rounded=1;whiteSpace=wrap;html=1;" parent="1" vertex="1">
          <mxGeometry x="1475" y="1440" width="130" height="60" as="geometry" />
        </mxCell>
        <mxCell id="cOvMReYoXUqAnT7zXksZ-352" value="" style="endArrow=classic;html=1;rounded=0;exitX=0.414;exitY=1;exitDx=0;exitDy=0;exitPerimeter=0;" parent="1" edge="1">
          <mxGeometry width="50" height="50" relative="1" as="geometry">
            <mxPoint x="1540" y="1500" as="sourcePoint" />
            <mxPoint x="1539.72" y="1560" as="targetPoint" />
          </mxGeometry>
        </mxCell>
        <mxCell id="cOvMReYoXUqAnT7zXksZ-353" value="Confirm Create" style="rounded=1;whiteSpace=wrap;html=1;" parent="1" vertex="1">
          <mxGeometry x="1480" y="1560" width="120" height="60" as="geometry" />
        </mxCell>
        <mxCell id="cOvMReYoXUqAnT7zXksZ-356" value="" style="ellipse;whiteSpace=wrap;html=1;aspect=fixed;fillColor=#FFFFFF;strokeColor=#545454;" parent="1" vertex="1">
          <mxGeometry x="1515" y="1820" width="50" height="50" as="geometry" />
        </mxCell>
        <mxCell id="cOvMReYoXUqAnT7zXksZ-357" value="" style="ellipse;whiteSpace=wrap;html=1;aspect=fixed;fillColor=#545454;" parent="1" vertex="1">
          <mxGeometry x="1520" y="1825" width="40" height="40" as="geometry" />
        </mxCell>
        <mxCell id="cOvMReYoXUqAnT7zXksZ-358" value="" style="endArrow=classic;html=1;rounded=0;exitX=0.5;exitY=1;exitDx=0;exitDy=0;entryX=0.5;entryY=0;entryDx=0;entryDy=0;" parent="1" target="cOvMReYoXUqAnT7zXksZ-359" edge="1">
          <mxGeometry width="50" height="50" relative="1" as="geometry">
            <mxPoint x="1540" y="1680" as="sourcePoint" />
            <mxPoint x="1540" y="1710" as="targetPoint" />
          </mxGeometry>
        </mxCell>
        <mxCell id="cOvMReYoXUqAnT7zXksZ-359" value="Logout" style="rounded=1;whiteSpace=wrap;html=1;" parent="1" vertex="1">
          <mxGeometry x="1480" y="1735" width="120" height="60" as="geometry" />
        </mxCell>
        <mxCell id="cOvMReYoXUqAnT7zXksZ-360" value="" style="endArrow=classic;html=1;rounded=0;exitX=0.5;exitY=1;exitDx=0;exitDy=0;entryX=0.5;entryY=0;entryDx=0;entryDy=0;" parent="1" target="cOvMReYoXUqAnT7zXksZ-356" edge="1">
          <mxGeometry width="50" height="50" relative="1" as="geometry">
            <mxPoint x="1539.72" y="1770" as="sourcePoint" />
            <mxPoint x="1540" y="1790" as="targetPoint" />
          </mxGeometry>
        </mxCell>
        <mxCell id="cOvMReYoXUqAnT7zXksZ-361" value="" style="rhombus;whiteSpace=wrap;html=1;" parent="1" vertex="1">
          <mxGeometry x="1520" y="1640" width="40" height="40" as="geometry" />
        </mxCell>
        <mxCell id="cOvMReYoXUqAnT7zXksZ-363" value="" style="endArrow=classic;html=1;rounded=0;exitX=0.414;exitY=1;exitDx=0;exitDy=0;exitPerimeter=0;" parent="1" edge="1">
          <mxGeometry width="50" height="50" relative="1" as="geometry">
            <mxPoint x="1540.08" y="1620" as="sourcePoint" />
            <mxPoint x="1540" y="1640" as="targetPoint" />
          </mxGeometry>
        </mxCell>
        <mxCell id="cOvMReYoXUqAnT7zXksZ-364" value="" style="endArrow=none;html=1;rounded=0;exitX=1;exitY=0.5;exitDx=0;exitDy=0;" parent="1" edge="1">
          <mxGeometry width="50" height="50" relative="1" as="geometry">
            <mxPoint x="1560" y="1660.37" as="sourcePoint" />
            <mxPoint x="1700" y="1659" as="targetPoint" />
          </mxGeometry>
        </mxCell>
        <mxCell id="cOvMReYoXUqAnT7zXksZ-365" value="" style="endArrow=none;html=1;rounded=0;" parent="1" edge="1">
          <mxGeometry width="50" height="50" relative="1" as="geometry">
            <mxPoint x="1699" y="1660" as="sourcePoint" />
            <mxPoint x="1700" y="860" as="targetPoint" />
          </mxGeometry>
        </mxCell>
        <mxCell id="cOvMReYoXUqAnT7zXksZ-366" value="[Return&amp;nbsp;&lt;div&gt;to Dashboard]&lt;/div&gt;" style="edgeLabel;html=1;align=center;verticalAlign=middle;resizable=0;points=[];" parent="cOvMReYoXUqAnT7zXksZ-365" vertex="1" connectable="0">
          <mxGeometry x="-0.0878" y="1" relative="1" as="geometry">
            <mxPoint y="-64" as="offset" />
          </mxGeometry>
        </mxCell>
        <mxCell id="cOvMReYoXUqAnT7zXksZ-367" value="" style="endArrow=classic;html=1;rounded=0;entryX=1.023;entryY=0.65;entryDx=0;entryDy=0;entryPerimeter=0;" parent="1" edge="1">
          <mxGeometry width="50" height="50" relative="1" as="geometry">
            <mxPoint x="1700" y="860" as="sourcePoint" />
            <mxPoint x="1600" y="860" as="targetPoint" />
          </mxGeometry>
        </mxCell>
        <mxCell id="m0Dqnb_9lKsP1kADwHT1-1" value="" style="endArrow=none;html=1;rounded=0;exitX=1;exitY=0.5;exitDx=0;exitDy=0;" edge="1" parent="1">
          <mxGeometry width="50" height="50" relative="1" as="geometry">
            <mxPoint x="100" y="1408.7499999999998" as="sourcePoint" />
            <mxPoint x="160" y="1409.1499999999999" as="targetPoint" />
          </mxGeometry>
        </mxCell>
        <mxCell id="m0Dqnb_9lKsP1kADwHT1-2" value="" style="endArrow=none;html=1;rounded=0;" edge="1" parent="1">
          <mxGeometry width="50" height="50" relative="1" as="geometry">
            <mxPoint x="160" y="1410" as="sourcePoint" />
            <mxPoint x="160" y="1010" as="targetPoint" />
          </mxGeometry>
        </mxCell>
        <mxCell id="m0Dqnb_9lKsP1kADwHT1-3" value="[Return&amp;nbsp;&lt;div&gt;to Dashboard]&lt;/div&gt;" style="edgeLabel;html=1;align=center;verticalAlign=middle;resizable=0;points=[];" vertex="1" connectable="0" parent="m0Dqnb_9lKsP1kADwHT1-2">
          <mxGeometry x="0.2752" y="-2" relative="1" as="geometry">
            <mxPoint as="offset" />
          </mxGeometry>
        </mxCell>
      </root>
    </mxGraphModel>
  </diagram>
</mxfile>
